<?xml version="1.0" encoding="UTF-8"?>
<svg id="Layer_1" data-name="Layer 1" xmlns="http://www.w3.org/2000/svg" xmlns:xlink="http://www.w3.org/1999/xlink" viewBox="0 0 304.69 243.5">
  <defs>
    <style>
      .cls-1 {
        fill: url(#linear-gradient);
      }

      .cls-2 {
        fill: #f2f2f2;
      }

      .cls-3 {
        fill: #fff;
      }

      .cls-4 {
        fill: #333;
      }

      .cls-5 {
        fill: #3a4b6f;
      }

      .cls-6 {
        fill: #394354;
      }
    </style>
    <linearGradient id="linear-gradient" x1="152.35" y1="235.58" x2="152.76" y2="179.68" gradientUnits="userSpaceOnUse">
      <stop offset="0" stop-color="#fff"/>
      <stop offset=".09" stop-color="#f8f8f8"/>
      <stop offset=".22" stop-color="#e6e6e6"/>
      <stop offset=".36" stop-color="#c8c8c8"/>
      <stop offset=".53" stop-color="#9e9e9e"/>
      <stop offset=".71" stop-color="#686868"/>
      <stop offset=".89" stop-color="#272727"/>
      <stop offset="1" stop-color="#000"/>
    </linearGradient>
  </defs>
  <path class="cls-1" d="m172.32,198.55h-39.96c1.39,16.72,1.25,31.57-6.24,37.46h52.45c-7.5-5.89-7.63-20.75-6.24-37.46Z"/>
  <g>
    <rect class="cls-2" width="304.69" height="199.79" rx="6.77" ry="6.77"/>
    <rect class="cls-4" x="7.49" y="7.49" width="289.7" height="184.81"/>
  </g>
  <rect class="cls-3" x="12.49" y="13.74" width="279.71" height="172.32"/>
  <rect class="cls-5" x="12.49" y="13.74" width="279.71" height="24.97"/>
  <g>
    <rect class="cls-3" x="19.98" y="19.98" width="12.49" height="12.49" rx="1.25" ry="1.25"/>
    <rect class="cls-3" x="38.71" y="19.98" width="12.49" height="12.49" rx="1.25" ry="1.25"/>
    <rect class="cls-3" x="57.44" y="19.98" width="12.49" height="12.49" rx="1.25" ry="1.25"/>
  </g>
  <g>
    <circle class="cls-6" cx="152.34" cy="101.15" r="37.65"/>
    <polygon class="cls-3" points="179.18 101.96 135.24 76.59 135.24 127.33 179.18 101.96"/>
  </g>
  <rect class="cls-5" x="12.49" y="166.08" width="279.71" height="19.98"/>
  <rect class="cls-3" x="22.48" y="172.32" width="259.73" height="7.49"/>
  <rect class="cls-2" x="66.18" y="231.01" width="172.32" height="12.49" rx="6.24" ry="6.24"/>
</svg>