<?xml version="1.0" encoding="UTF-8"?>
<svg id="Layer_1" data-name="Layer 1" xmlns="http://www.w3.org/2000/svg" viewBox="0 0 306.18 191.64">
  <defs>
    <style>
      .cls-1 {
        fill: #f2f2f2;
      }

      .cls-2 {
        fill: #e5a548;
      }

      .cls-3 {
        fill: #d8dee5;
      }

      .cls-4 {
        fill: #bf4949;
      }

      .cls-5 {
        fill: #a3adbe;
      }

      .cls-6 {
        fill: #354461;
      }
    </style>
  </defs>
  <g>
    <path class="cls-5" d="m304.22,129.74c14.74,31.93-55.4,59.75-150.08,61.81C61.53,193.55-13.28,165.52,1.99,129.74c9.4-22.22,67.62-43.06,151.09-43.06s140.99,21.09,151.14,43.06Z"/>
    <ellipse class="cls-6" cx="153.13" cy="134.88" rx="151.14" ry="47.78"/>
    <ellipse class="cls-3" cx="153.13" cy="130.62" rx="127.7" ry="40.37"/>
    <ellipse class="cls-6" cx="153.13" cy="128.24" rx="100.56" ry="31.79"/>
    <ellipse class="cls-3" cx="153.13" cy="128.71" rx="76.69" ry="24.25"/>
    <ellipse class="cls-6" cx="153.13" cy="128.51" rx="51.06" ry="16.15"/>
    <ellipse class="cls-3" cx="153.13" cy="126.82" rx="27.92" ry="8.83"/>
    <ellipse class="cls-6" cx="153.13" cy="128.22" rx="12.38" ry="3.91"/>
  </g>
  <g>
    <path class="cls-1" d="m84.51,78.74c0-3.13-.21-21.75-.26-27.94,0-8.42-1.42-17.85-11.09-19.87-3.94-.79-8.01-.31-12.02-.21-.89,0-2.06-.35-2.35-1.02-.04-.04-.06-.09-.07-.15-.11-.52,1.44-1.47,2.37-2,6.99-4.05,9.84-10.01,8-16.94-1.33-4.97-5.21-8.85-10.17-10.19C57.81.13,56.68,0,55.55,0h0c-1.14,0-2.27.13-3.37.42-4.97,1.33-8.85,5.22-10.19,10.19-1.84,6.93,1.01,12.89,8,16.94.93.53,2.48,1.48,2.37,2,0,.06-.03.11-.07.15-.27.67-1.44,1.04-2.34,1.02-4.02-.1-8.09-.58-12.02.21-9.69,1.96-11.03,11.39-11.09,19.87,0,6.21-.24,24.84-.27,27.94,0,1.8,0,3.8,1.24,5.22,1.5,1.6,3.75,2.25,5.88,1.7,3.73-.79,3.73-3.9,3.73-6.93v-33.04c0-1.01-.35-2.86.94-2.81s.92,1.71.92,2.65c0,13.44-.07,26.88-.14,40.34.06,1.07.1,33.54.09,33.54-.1,5.91-.17,11.81,8.69,10.16,2.91-1.58,2.71-4.51,3.14-7.18v-4.66h0v-22.84c0-4.12-.87-7.58,4.55-7.73,5.43.15,4.56,3.6,4.56,7.73v22.84h0v4.66c.43,2.67.24,5.6,3.14,7.18,8.81,1.65,8.69-4.25,8.69-10.16,0,0,0-32.48.09-33.54,0-13.46-.14-26.9-.14-40.34,0-.93-.36-2.61.92-2.65s.94,1.8.94,2.81v33.04c0,3.03,0,6.14,3.73,6.93,2.12.55,4.37-.11,5.88-1.7,1.12-1.42,1.12-3.42,1.09-5.22Z"/>
    <path class="cls-4" d="m279.59,78.74c0-3.13-.22-21.75-.27-27.94-.06-8.42-1.4-17.85-11.09-19.87-3.94-.79-8-.31-12.02-.21-.89,0-2.06-.35-2.35-1.02-.04-.04-.06-.09-.06-.15-.11-.52,1.44-1.47,2.37-2,6.99-4.05,9.84-10.01,8-16.94-1.33-4.97-5.22-8.85-10.19-10.19-1.1-.29-2.23-.43-3.37-.42h0c-1.14,0-2.27.13-3.37.42-4.97,1.33-8.85,5.22-10.19,10.19-1.84,6.93,1.01,12.89,8,16.94.93.53,2.48,1.48,2.37,2,0,.06-.02.11-.06.15-.29.67-1.45,1.04-2.35,1.02-4.01-.1-8.09-.58-12.02.21-9.68,1.96-11.03,11.39-11.09,19.87,0,6.21-.24,24.84-.27,27.94,0,1.8,0,3.8,1.24,5.22,1.5,1.6,3.75,2.25,5.88,1.7,3.73-.79,3.73-3.9,3.73-6.93v-33.04c0-1.01-.35-2.86.94-2.81s.92,1.71.92,2.65c0,13.44-.07,26.88-.14,40.34.06,1.07.1,33.54.09,33.54-.1,5.91-.17,11.81,8.69,10.16,2.91-1.58,2.71-4.51,3.14-7.18v-4.66h0v-22.84c0-4.12-.87-7.58,4.56-7.73,5.42.15,4.55,3.6,4.55,7.73v22.84h0v4.66c.43,2.67.24,5.6,3.14,7.18,8.81,1.65,8.69-4.25,8.69-10.16,0,0,0-32.48.09-33.54-.06-13.46-.14-26.9-.14-40.34,0-.93-.36-2.61.92-2.65s.94,1.8.94,2.81v33.04c0,3.03,0,6.14,3.73,6.93,2.12.55,4.37-.1,5.88-1.7,1.13-1.42,1.12-3.42,1.11-5.22Z"/>
    <path class="cls-1" d="m230.82,78.74c0-3.13-.22-21.75-.27-27.94,0-8.42-1.42-17.85-11.09-19.87-3.94-.79-8-.31-12.02-.21-.89,0-2.06-.35-2.35-1.02-.02-.05-.02-.1,0-.15-.11-.52,1.44-1.47,2.37-2,6.99-4.05,9.84-10.01,8-16.94-1.33-4.97-5.22-8.85-10.19-10.19-1.1-.29-2.23-.43-3.37-.42h0c-1.14,0-2.27.13-3.37.42-4.97,1.33-8.85,5.22-10.19,10.19-1.84,6.93,1.01,12.89,8,16.94.93.53,2.48,1.48,2.37,2,0,.06-.02.11-.06.15-.29.67-1.45,1.04-2.35,1.02-4.02-.1-8.09-.58-12.02.21-9.68,1.96-11.03,11.39-11.09,19.87,0,6.21-.24,24.84-.27,27.94,0,1.8,0,3.8,1.24,5.22,1.5,1.6,3.75,2.25,5.88,1.7,3.73-.79,3.73-3.9,3.73-6.93v-33.04c0-1.01-.35-2.86.94-2.81s.92,1.71.92,2.65c0,13.44-.07,26.88-.14,40.34,0,1.07.1,33.54.09,33.54-.1,5.91-.17,11.81,8.63,10.16,2.91-1.58,2.71-4.51,3.14-7.18v-4.66h0v-22.84c0-4.12-.87-7.58,4.55-7.73,5.43.15,4.56,3.6,4.56,7.73v22.84h0v4.66c.43,2.67.24,5.6,3.14,7.18,8.81,1.65,8.69-4.25,8.63-10.16,0,0,0-32.48.09-33.54-.06-13.46-.14-26.9-.14-40.34,0-.93-.36-2.61.92-2.65s.94,1.8.94,2.81v33.04c0,3.03,0,6.14,3.73,6.93,2.12.55,4.37-.1,5.88-1.7,1.19-1.42,1.18-3.42,1.17-5.22Z"/>
    <path class="cls-4" d="m133.29,78.74c0-3.13-.22-21.75-.27-27.94-.06-8.42-1.42-17.85-11.09-19.87-3.94-.79-8.01-.31-12.02-.21-.89,0-2.06-.35-2.35-1.02-.04-.04-.06-.09-.07-.15-.11-.52,1.44-1.47,2.37-2,6.99-4.05,9.84-10.01,8-16.94-1.33-4.97-5.2-8.85-10.17-10.19C106.58.13,105.45,0,104.31,0h0c-1.14,0-2.27.13-3.37.42-4.97,1.33-8.85,5.22-10.19,10.19-1.84,6.93,1.01,12.89,8,16.94.93.53,2.48,1.48,2.37,2,.02.05.02.1,0,.15-.29.67-1.45,1.04-2.35,1.02-4.02-.1-8.09-.58-12.02.21-9.69,1.96-11.03,11.39-11.09,19.87,0,6.21-.24,24.84-.27,27.94,0,1.8,0,3.8,1.24,5.22,1.5,1.6,3.75,2.25,5.88,1.7,3.73-.79,3.73-3.9,3.73-6.93v-33.04c0-1.01-.35-2.86.94-2.81s.92,1.71.92,2.65c0,13.44-.07,26.88-.14,40.34,0,1.07.1,33.54.09,33.54-.1,5.91-.17,11.81,8.69,10.16,2.91-1.58,2.71-4.51,3.14-7.18v-4.66h0v-22.84c0-4.12-.87-7.58,4.55-7.73,5.43.15,4.56,3.6,4.56,7.73v22.84h0v4.66c.43,2.67.24,5.6,3.14,7.18,8.81,1.65,8.69-4.25,8.69-10.16,0,0,0-32.48.09-33.54,0-13.46-.14-26.9-.14-40.34,0-.93-.36-2.61.92-2.65s.94,1.8.94,2.81v33.04c0,3.03,0,6.14,3.73,6.93,2.12.55,4.37-.11,5.88-1.7,1.06-1.42,1.06-3.42,1.04-5.22Z"/>
    <path class="cls-2" d="m182.09,78.74c0-3.13-.22-21.75-.27-27.94-.06-8.42-1.42-17.85-11.09-19.87-3.94-.79-8.01-.31-12.02-.21-.89,0-2.06-.35-2.35-1.02-.04-.04-.06-.09-.06-.15-.11-.52,1.44-1.47,2.37-2,6.99-4.05,9.84-10.01,8-16.94-1.33-4.97-5.22-8.85-10.19-10.19-1.1-.29-2.23-.43-3.37-.42h0c-1.14,0-2.27.13-3.37.42-4.97,1.33-8.85,5.22-10.19,10.19-1.84,6.93,1.01,12.89,8,16.94.93.53,2.48,1.48,2.37,2,.02.05.02.1,0,.15-.29.67-1.45,1.04-2.35,1.02-4.02-.1-8.09-.58-12.02.21-9.69,1.96-11.03,11.39-11.09,19.87,0,6.21-.24,24.84-.27,27.94,0,1.8,0,3.8,1.24,5.22,1.5,1.6,3.75,2.25,5.88,1.7,3.73-.79,3.73-3.9,3.73-6.93v-33.04c0-1.01-.35-2.86.94-2.81s.92,1.71.92,2.65c0,13.44-.07,26.88-.14,40.34.06,1.07.1,33.54.09,33.54-.1,5.91-.17,11.81,8.63,10.16,2.91-1.58,2.71-4.51,3.14-7.18v-4.66h0v-22.84c0-4.12-.87-7.58,4.55-7.73,5.43.15,4.56,3.6,4.56,7.73v22.84h0v4.66c.43,2.67.24,5.6,3.14,7.18,8.81,1.65,8.69-4.25,8.63-10.16,0,0,0-32.48.09-33.54,0-13.46-.14-26.9-.14-40.34,0-.93-.36-2.61.92-2.65s.94,1.8.94,2.81v33.04c0,3.03,0,6.14,3.73,6.93,2.12.55,4.37-.11,5.88-1.7,1.17-1.42,1.17-3.42,1.17-5.22Z"/>
  </g>
</svg>