<?xml version="1.0" encoding="UTF-8"?>
<svg id="Layer_1" data-name="Layer 1" xmlns="http://www.w3.org/2000/svg" viewBox="0 0 959.25 634.1">
  <defs>
    <style>
      .cls-1 {
        fill: #f2f2f2;
      }

      .cls-2 {
        fill: #0000b4;
      }

      .cls-3 {
        fill: #ebbc4b;
      }

      .cls-4 {
        fill: #e9ebef;
      }

      .cls-5 {
        fill: #e7ebf3;
      }

      .cls-6 {
        fill: #fff;
      }

      .cls-7 {
        fill: #e5a712;
      }

      .cls-8 {
        fill: #999;
      }

      .cls-9 {
        fill: #b7b2b0;
      }

      .cls-10 {
        fill: #b3b3b3;
      }

      .cls-11 {
        fill: #c1d4d7;
      }

      .cls-12 {
        fill: #b0b581;
      }

      .cls-13 {
        fill: #b36212;
      }

      .cls-14 {
        fill: #a4a686;
      }

      .cls-15 {
        fill: #c0c2c4;
      }

      .cls-16 {
        fill: #d6dbe3;
      }

      .cls-17 {
        fill: #abc96b;
      }

      .cls-18 {
        fill: #d5dbdd;
      }

      .cls-19 {
        fill: #130c0e;
      }

      .cls-20 {
        fill: #24365a;
      }

      .cls-21 {
        fill: #0b1528;
      }

      .cls-22 {
        fill: #1c1d1a;
      }

      .cls-23 {
        fill: #89939b;
      }

      .cls-24 {
        fill: #98a1b1;
      }

      .cls-25 {
        fill: #54626e;
      }

      .cls-26 {
        fill: #779c44;
      }

      .cls-27 {
        fill: none;
        stroke: #e7ebf3;
        stroke-dasharray: 0 0 10 10;
        stroke-miterlimit: 10;
        stroke-width: 2px;
      }
    </style>
  </defs>
  <g>
    <g>
      <g>
        <rect class="cls-17" x="-2.13" y="123.31" width="135.94" height="76.27" transform="translate(213.06 68.04) rotate(79.8)"/>
        <rect class="cls-26" x="33.71" y="99.48" width="64.25" height="123.92" transform="translate(159.24 308.67) rotate(169.8)"/>
        <rect class="cls-17" x="39.72" y="105.49" width="52.24" height="111.9" transform="translate(-27.56 14.22) rotate(-10.2)"/>
        <path class="cls-26" d="m84.27,116.38c-7.99,1.3-15.57-4.04-17.01-12.04l14.37-2.59,2.63,14.62Z"/>
        <path class="cls-26" d="m86.83,214.51c-1.3-7.99,4.04-15.57,12.04-17.01l2.59,14.37-14.62,2.63Z"/>
        <path class="cls-26" d="m47.41,206.51c7.99-1.3,15.57,4.04,17.01,12.04l-14.37,2.59-2.63-14.62Z"/>
        <path class="cls-26" d="m44.84,108.37c1.3,7.99-4.04,15.57-12.04,17.01l-2.59-14.37,14.62-2.63Z"/>
        <circle class="cls-26" cx="65.84" cy="161.44" r="21.5"/>
        <circle class="cls-26" cx="72.59" cy="198.92" r="6.23"/>
        <circle class="cls-26" cx="59.09" cy="123.96" r="6.23" transform="translate(-67.44 177.32) rotate(-87.38)"/>
      </g>
      <path class="cls-17" d="m62.62,171.41c3.93-.71,5.79-3.18,6.33-8.97.4-4.15.97-5.15,2.58-5.44,1.14-.21,2.66.22,3.08,2.59.51,2.82-1.06,3.6-2.04,4.05l.94,5.24c2.83-.79,5.37-2.93,5.24-7.65l2.37-.43-.79-4.39-2.41.43c-1.29-3.39-4.11-5.71-7.85-5.03-3.47.62-5.44,2.86-6.12,9.42-.36,3.6-1.07,4.72-2.88,5.04-1.48.27-2.94-.37-3.43-3.1-.4-2.21.54-3.89,2.37-4.66l-.94-5.23c-3.51.93-5.68,3.85-5.56,8.23l-2.97.53.8,4.42,2.97-.53c1.33,3.94,4.15,6.23,8.31,5.48Z"/>
    </g>
    <g>
      <g>
        <rect class="cls-17" x="-10.26" y="135.01" width="135.94" height="76.27" transform="translate(217.89 85.68) rotate(79.8)"/>
        <rect class="cls-26" x="25.58" y="111.19" width="64.25" height="123.92" transform="translate(145.17 333.33) rotate(169.8)"/>
        <rect class="cls-17" x="31.59" y="117.2" width="52.24" height="111.9" transform="translate(-29.76 12.96) rotate(-10.2)"/>
        <path class="cls-26" d="m76.13,128.08c-7.99,1.3-15.57-4.04-17.01-12.04l14.37-2.59,2.63,14.62Z"/>
        <path class="cls-26" d="m78.7,226.21c-1.3-7.99,4.04-15.57,12.04-17.01l2.59,14.37-14.62,2.63Z"/>
        <path class="cls-26" d="m39.28,218.21c7.99-1.3,15.57,4.04,17.01,12.04l-14.37,2.59-2.63-14.62Z"/>
        <path class="cls-26" d="m36.71,120.08c1.3,7.99-4.04,15.57-12.04,17.01l-2.59-14.37,14.62-2.63Z"/>
        <circle class="cls-26" cx="57.71" cy="173.14" r="21.5"/>
        <circle class="cls-26" cx="64.45" cy="210.63" r="6.23"/>
        <circle class="cls-26" cx="50.96" cy="135.66" r="6.23" transform="translate(-86.89 180.36) rotate(-87.38)"/>
      </g>
      <path class="cls-17" d="m54.49,183.11c3.93-.71,5.79-3.18,6.33-8.97.4-4.15.97-5.15,2.58-5.44,1.14-.21,2.66.22,3.08,2.59.51,2.82-1.06,3.6-2.04,4.05l.94,5.24c2.83-.79,5.37-2.93,5.24-7.65l2.37-.43-.79-4.39-2.41.43c-1.29-3.39-4.11-5.71-7.85-5.03-3.47.62-5.44,2.86-6.12,9.42-.36,3.6-1.07,4.72-2.88,5.04-1.48.27-2.94-.37-3.43-3.1-.4-2.21.54-3.89,2.37-4.66l-.94-5.23c-3.51.93-5.68,3.85-5.56,8.23l-2.97.53.8,4.42,2.97-.53c1.33,3.94,4.15,6.23,8.31,5.48Z"/>
    </g>
    <g>
      <g>
        <rect class="cls-17" x="-18.39" y="146.71" width="135.94" height="76.27" transform="translate(222.72 103.31) rotate(79.8)"/>
        <rect class="cls-26" x="17.45" y="122.89" width="64.25" height="123.92" transform="translate(131.11 357.99) rotate(169.8)"/>
        <rect class="cls-17" x="23.46" y="128.9" width="52.24" height="111.9" transform="translate(-31.96 11.71) rotate(-10.2)"/>
        <path class="cls-26" d="m68,139.78c-7.99,1.3-15.57-4.04-17.01-12.04l14.37-2.59,2.63,14.62Z"/>
        <path class="cls-26" d="m70.57,237.92c-1.3-7.99,4.04-15.57,12.04-17.01l2.59,14.37-14.62,2.63Z"/>
        <path class="cls-26" d="m31.15,229.91c7.99-1.3,15.57,4.04,17.01,12.04l-14.37,2.59-2.63-14.62Z"/>
        <path class="cls-26" d="m28.58,131.78c1.3,7.99-4.04,15.57-12.04,17.01l-2.59-14.37,14.62-2.63Z"/>
        <circle class="cls-26" cx="49.57" cy="184.85" r="21.5"/>
        <circle class="cls-26" cx="56.32" cy="222.33" r="6.23"/>
        <circle class="cls-26" cx="42.83" cy="147.36" r="6.23" transform="translate(-106.34 183.41) rotate(-87.38)"/>
      </g>
      <path class="cls-17" d="m46.36,194.81c3.93-.71,5.79-3.18,6.33-8.97.4-4.15.97-5.15,2.58-5.44,1.14-.21,2.66.22,3.08,2.59.51,2.82-1.06,3.6-2.04,4.05l.94,5.24c2.83-.79,5.37-2.93,5.24-7.65l2.37-.43-.79-4.39-2.41.43c-1.29-3.39-4.11-5.71-7.85-5.03-3.47.62-5.44,2.86-6.12,9.42-.36,3.6-1.07,4.72-2.88,5.04-1.48.27-2.94-.37-3.43-3.1-.4-2.21.54-3.89,2.37-4.66l-.94-5.23c-3.51.93-5.68,3.85-5.56,8.23l-2.97.53.8,4.42,2.97-.53c1.33,3.94,4.15,6.23,8.31,5.48Z"/>
    </g>
  </g>
  <g>
    <g>
      <rect class="cls-16" x="410.45" y="240.13" width="89.61" height="9.78"/>
      <rect class="cls-4" x="410.45" y="249.69" width="89.61" height="22.41"/>
      <path class="cls-6" d="m282.63,207.84v22.97c0,5.07,4.11,9.19,9.19,9.19h328.55c5.07,0,9.19-4.11,9.19-9.19v-22.97h-346.92Z"/>
      <path class="cls-10" d="m629.55,9.19C629.55,4.12,625.43,0,620.36,0h-328.64c-5.07-.13-9.29,3.88-9.41,8.95,0,.08,0,.16,0,.23v198.84h347.24V9.19Z"/>
      <rect class="cls-8" x="447.34" y="216.71" width="14.47" height="14.47" rx="7.23" ry="7.23"/>
      <path class="cls-21" d="m308.53,5.65h294.83c8.45,0,15.3,6.85,15.3,15.3h0v181.24h-325.38V20.9c.03-8.41,6.84-15.22,15.25-15.25Z"/>
    </g>
    <path class="cls-11" d="m611.17,23.11c0-5.66-4.59-10.24-10.24-10.24h-291.43c-5.63,0-10.2,4.57-10.2,10.2,0,.02,0,.03,0,.05v9.19h311.87v-9.19Z"/>
    <rect class="cls-2" x="299.3" y="32.48" width="311.97" height="14.38"/>
    <rect class="cls-1" x="299.3" y="46.85" width="311.97" height="148.45"/>
    <rect class="cls-14" x="317.08" y="54.8" width="31.33" height="18.42"/>
    <rect class="cls-11" x="317.08" y="79.65" width="31.33" height="41.84"/>
    <rect class="cls-11" x="317.08" y="131.27" width="31.33" height="23.98"/>
    <rect class="cls-13" x="317.08" y="161.22" width="31.33" height="25.03"/>
    <rect class="cls-11" x="358.28" y="57.69" width="170.18" height="9.46"/>
    <rect class="cls-12" x="358.09" y="139.96" width="170.5" height="7.72"/>
    <rect class="cls-12" x="358.09" y="151.53" width="170.5" height="7.72"/>
    <rect class="cls-12" x="358.09" y="163.11" width="170.5" height="7.72"/>
    <rect class="cls-12" x="358.09" y="174.63" width="170.5" height="7.72"/>
    <rect class="cls-13" x="545.12" y="57.33" width="48.37" height="44.46"/>
    <rect class="cls-11" x="545.12" y="112.67" width="48.37" height="62.05"/>
    <rect class="cls-14" x="321.76" y="36.33" width="24.85" height="6.66"/>
    <rect class="cls-9" x="358.18" y="36.7" width="39.91" height="5.97"/>
    <rect class="cls-9" x="416.33" y="36.7" width="39.91" height="5.97"/>
    <rect class="cls-9" x="474.44" y="36.7" width="39.91" height="5.97"/>
    <rect class="cls-9" x="532.54" y="36.7" width="39.91" height="5.97"/>
    <path d="m376.14,107.71v-6.06h15.16v13.78c-1.85,1.68-4.02,2.96-6.38,3.77-2.72,1.09-5.62,1.65-8.54,1.65-3.33.07-6.62-.72-9.55-2.3-2.62-1.42-4.75-3.6-6.11-6.25-1.38-2.87-2.08-6.01-2.07-9.19-.06-3.37.73-6.7,2.3-9.69,1.47-2.94,3.86-5.32,6.8-6.8,2.56-1.29,5.4-1.94,8.27-1.88,3.59-.2,7.14.75,10.15,2.71,2.39,1.87,4.03,4.55,4.59,7.53l-7.03,1.29c-.45-1.61-1.42-3.03-2.76-4.04-1.5-1.01-3.29-1.52-5.1-1.47-2.75-.13-5.42.92-7.35,2.89-1.98,2.44-2.95,5.55-2.71,8.68-.21,3.29.77,6.55,2.76,9.19,1.81,2.07,4.46,3.21,7.21,3.12,1.57,0,3.13-.3,4.59-.87,1.36-.53,2.64-1.24,3.81-2.11v-3.95h-8.04Z"/>
    <path d="m397.87,120.34v-34.86h23.93v5.88h-16.86v8.27h14.56v5.88h-14.56v14.84h-7.07Z"/>
    <path d="m427.45,120.34v-34.86h25.91v5.88h-18.69v7.72h17.55v5.88h-17.55v9.51h19.52v5.88h-26.73Z"/>
    <path d="m460.2,85.48h13.78c2.06-.05,4.11.06,6.15.32,1.32.22,2.57.72,3.67,1.47,1.09.76,2,1.75,2.66,2.89.73,1.24,1.09,2.65,1.06,4.09.06,3.28-1.88,6.27-4.91,7.53,1.94.49,3.67,1.61,4.91,3.17,1.16,1.51,1.77,3.38,1.75,5.28-.01,3.24-1.54,6.28-4.13,8.22-1.38.9-2.95,1.47-4.59,1.65h-20.35v-34.63Zm7.03,5.79v8.08h9.69c1.06-.07,2.07-.51,2.85-1.24.71-.72,1.09-1.7,1.06-2.71.04-.97-.29-1.92-.92-2.66-.69-.71-1.63-1.14-2.62-1.19h-6.06l-4-.28Zm0,13.78v9.19h6.52c1.62.12,3.25.12,4.87,0,2.12-.31,3.65-2.18,3.54-4.32.02-.95-.25-1.88-.78-2.66-.54-.76-1.31-1.33-2.2-1.61-2.05-.44-4.15-.61-6.25-.51l-5.7-.09Z"/>
    <path d="m493.59,109l6.89-.69c.22,1.94,1.12,3.74,2.53,5.1,1.45,1.13,3.26,1.7,5.1,1.61,1.83.12,3.65-.4,5.14-1.47,1.07-.79,1.7-2.03,1.7-3.35.02-.77-.24-1.52-.73-2.11-.7-.7-1.57-1.2-2.53-1.47-.83-.32-2.71-.83-5.65-1.56-2.88-.51-5.6-1.69-7.95-3.44-2.07-1.72-3.25-4.29-3.22-6.98,0-1.78.51-3.51,1.47-5.01,1.07-1.59,2.59-2.82,4.36-3.54,2.19-.89,4.53-1.35,6.89-1.33,3.55-.27,7.07.76,9.92,2.89,2.22,1.93,3.49,4.73,3.49,7.67l-7.07.28c-.12-1.49-.81-2.87-1.93-3.86-1.36-.89-2.98-1.3-4.59-1.15-1.62-.05-3.22.38-4.59,1.24-.7.5-1.11,1.3-1.1,2.16-.02.84.38,1.63,1.06,2.11,1.99,1.19,4.19,1.99,6.48,2.34,2.62.54,5.16,1.39,7.58,2.53,1.6.78,2.94,2.01,3.86,3.54,2.95,5.03,1.27,11.5-3.76,14.46-.39.23-.79.43-1.2.61-2.44.89-5.03,1.31-7.62,1.24-3.64.24-7.24-.83-10.15-3.03-2.52-2.26-4.08-5.4-4.36-8.77Z"/>
    <polygon class="cls-22" points="523.12 135.27 504.57 123.19 504.57 123.28 520.55 150.8 523.08 149.28 515.36 137.34 523.12 135.27"/>
    <polygon class="cls-22" points="505.81 145.38 511.41 139.63 517.98 152.27 520.55 150.8 504.57 123.28 504.52 123.24 505.81 145.38"/>
    <rect class="cls-4" x="370.93" y="267.1" width="170" height="19" rx="9.5" ry="9.5"/>
  </g>
  <g>
    <polygon class="cls-23" points="959.25 99.75 850.77 79.63 825.69 214.63 959 100.89 959.25 99.75"/>
    <polygon class="cls-25" points="929.23 261.29 959 100.89 825.69 214.63 820.79 241.18 929.23 261.29"/>
    <rect class="cls-6" x="855.79" y="124.83" width="63.41" height="64.61" transform="translate(568.67 1000.16) rotate(-79.32)"/>
    <rect class="cls-19" x="887.85" y="115.64" width="3.16" height="46.59" transform="translate(588.86 987.49) rotate(-79.37)"/>
    <rect class="cls-19" x="884.22" y="126.64" width="3.16" height="46.58" transform="translate(571.71 991.63) rotate(-79.14)"/>
    <rect class="cls-19" x="884.57" y="134.01" width="3.16" height="46.59" transform="translate(568.13 999.25) rotate(-79.37)"/>
    <rect class="cls-19" x="882.94" y="143.25" width="3.16" height="46.59" transform="translate(557.73 1005.19) rotate(-79.37)"/>
    <polygon class="cls-20" points="846 106.05 841.26 105.15 817.14 240.59 821.33 241.37 846 106.05"/>
    <polygon class="cls-3" points="846.24 106.1 851.09 79.79 846.34 78.92 841.62 105.22 846.24 106.1"/>
    <polygon class="cls-7" points="847.02 79.05 828.62 75.62 823.78 101.85 842.2 105.34 847.02 79.05"/>
    <polygon class="cls-3" points="828.62 75.62 821.58 88.21 816.78 114.46 823.92 101.85 828.62 75.62"/>
    <polygon class="cls-20" points="798.65 237.17 823.92 101.85 816.78 114.46 793.43 243.47 798.65 237.17"/>
    <polygon class="cls-6" points="925.74 260.75 798.65 237.17 795.43 241.05 924.74 264.22 925.74 260.75"/>
    <polygon class="cls-24" points="925.74 260.75 924.74 264.22 795.43 241.05 793.43 243.47 925.73 267.1 927.77 261.16 925.74 260.75"/>
    <polygon class="cls-24" points="823.78 101.85 798.65 237.17 817.49 240.66 842.2 105.34 823.78 101.85"/>
  </g>
  <g>
    <rect class="cls-18" x="294.64" y="501.1" width="323.07" height="126.89"/>
    <rect class="cls-15" x="294.13" y="626.33" width="323.52" height="7.77"/>
    <rect class="cls-6" x="303.43" y="511.29" width="18.66" height="9.62" rx="1.78" ry="1.78"/>
    <rect class="cls-6" x="303.43" y="524.22" width="19.43" height="13.82" rx="1.78" ry="1.78"/>
    <rect class="cls-6" x="324.58" y="524.22" width="19.43" height="13.82" rx="1.78" ry="1.78"/>
    <rect class="cls-6" x="345.73" y="524.22" width="19.43" height="13.82" rx="1.78" ry="1.78"/>
    <rect class="cls-6" x="366.88" y="524.22" width="19.43" height="13.82" rx="1.78" ry="1.78"/>
    <rect class="cls-6" x="388.09" y="524.22" width="19.43" height="13.82" rx="1.78" ry="1.78"/>
    <rect class="cls-6" x="409.24" y="524.22" width="19.43" height="13.82" rx="1.78" ry="1.78"/>
    <rect class="cls-6" x="430.38" y="524.22" width="19.43" height="13.82" rx="1.78" ry="1.78"/>
    <rect class="cls-6" x="451.53" y="524.22" width="19.43" height="13.82" rx="1.78" ry="1.78"/>
    <rect class="cls-6" x="472.68" y="524.22" width="19.43" height="13.82" rx="1.78" ry="1.78"/>
    <rect class="cls-6" x="493.83" y="524.22" width="19.43" height="13.82" rx="1.78" ry="1.78"/>
    <rect class="cls-6" x="515.04" y="524.22" width="19.43" height="13.82" rx="1.78" ry="1.78"/>
    <rect class="cls-6" x="536.18" y="524.22" width="19.43" height="13.82" rx="1.78" ry="1.78"/>
    <rect class="cls-6" x="557.33" y="524.22" width="19.43" height="13.82" rx="1.78" ry="1.78"/>
    <rect class="cls-6" x="579.12" y="524.22" width="28.47" height="13.82" rx="1.78" ry="1.78"/>
    <rect class="cls-6" x="303.12" y="561.8" width="32.49" height="13.82" rx="1.78" ry="1.78"/>
    <rect class="cls-6" x="574.85" y="561.8" width="32.49" height="13.82" rx="1.78" ry="1.78"/>
    <rect class="cls-6" x="339.42" y="561.8" width="18.15" height="13.82" rx="1.78" ry="1.78"/>
    <rect class="cls-6" x="360.7" y="561.8" width="18.15" height="13.82" rx="1.78" ry="1.78"/>
    <rect class="cls-6" x="381.91" y="561.8" width="18.15" height="13.82" rx="1.78" ry="1.78"/>
    <rect class="cls-6" x="403.18" y="561.8" width="18.15" height="13.82" rx="1.78" ry="1.78"/>
    <rect class="cls-6" x="424.46" y="561.8" width="18.15" height="13.82" rx="1.78" ry="1.78"/>
    <rect class="cls-6" x="445.73" y="561.8" width="18.15" height="13.82" rx="1.78" ry="1.78"/>
    <rect class="cls-6" x="467.01" y="561.8" width="18.15" height="13.82" rx="1.78" ry="1.78"/>
    <rect class="cls-6" x="488.28" y="561.8" width="18.15" height="13.82" rx="1.78" ry="1.78"/>
    <rect class="cls-6" x="509.56" y="561.8" width="18.15" height="13.82" rx="1.78" ry="1.78"/>
    <rect class="cls-6" x="530.83" y="561.8" width="18.15" height="13.82" rx="1.78" ry="1.78"/>
    <rect class="cls-6" x="303.12" y="579.89" width="41.85" height="14.52" rx="1.78" ry="1.78"/>
    <rect class="cls-6" x="565.49" y="579.89" width="41.85" height="14.52" rx="1.78" ry="1.78"/>
    <rect class="cls-6" x="348.72" y="579.89" width="18.15" height="14.52" rx="1.78" ry="1.78"/>
    <rect class="cls-6" x="370" y="579.89" width="18.15" height="14.52" rx="1.78" ry="1.78"/>
    <rect class="cls-6" x="391.27" y="579.89" width="18.15" height="14.52" rx="1.78" ry="1.78"/>
    <rect class="cls-6" x="412.55" y="579.89" width="18.15" height="14.52" rx="1.78" ry="1.78"/>
    <rect class="cls-6" x="433.82" y="579.89" width="18.15" height="14.52" rx="1.78" ry="1.78"/>
    <rect class="cls-6" x="455.1" y="579.89" width="18.15" height="14.52" rx="1.78" ry="1.78"/>
    <rect class="cls-6" x="476.31" y="579.89" width="18.15" height="14.52" rx="1.78" ry="1.78"/>
    <rect class="cls-6" x="497.58" y="579.89" width="18.15" height="14.52" rx="1.78" ry="1.78"/>
    <rect class="cls-6" x="518.86" y="579.89" width="18.15" height="14.52" rx="1.78" ry="1.78"/>
    <rect class="cls-6" x="540.13" y="579.89" width="18.15" height="14.52" rx="1.78" ry="1.78"/>
    <rect class="cls-6" x="552.11" y="561.8" width="18.15" height="13.82" rx="1.78" ry="1.78"/>
    <rect class="cls-6" x="587.84" y="543.01" width="19.43" height="13.82" rx="1.78" ry="1.78"/>
    <rect class="cls-6" x="566.7" y="543.01" width="19.43" height="13.82" rx="1.78" ry="1.78"/>
    <rect class="cls-6" x="545.55" y="543.01" width="19.43" height="13.82" rx="1.78" ry="1.78"/>
    <rect class="cls-6" x="524.4" y="543.01" width="19.43" height="13.82" rx="1.78" ry="1.78"/>
    <rect class="cls-6" x="503.25" y="543.01" width="19.43" height="13.82" rx="1.78" ry="1.78"/>
    <rect class="cls-6" x="482.11" y="543.01" width="19.43" height="13.82" rx="1.78" ry="1.78"/>
    <rect class="cls-6" x="460.89" y="543.01" width="19.43" height="13.82" rx="1.78" ry="1.78"/>
    <rect class="cls-6" x="439.75" y="543.01" width="19.43" height="13.82" rx="1.78" ry="1.78"/>
    <rect class="cls-6" x="418.6" y="543.01" width="19.43" height="13.82" rx="1.78" ry="1.78"/>
    <rect class="cls-6" x="397.45" y="543.01" width="19.43" height="13.82" rx="1.78" ry="1.78"/>
    <rect class="cls-6" x="376.3" y="543.01" width="19.43" height="13.82" rx="1.78" ry="1.78"/>
    <rect class="cls-6" x="355.16" y="543.01" width="19.43" height="13.82" rx="1.78" ry="1.78"/>
    <rect class="cls-6" x="333.95" y="543.01" width="19.43" height="13.82" rx="1.78" ry="1.78"/>
    <rect class="cls-6" x="303.12" y="543.01" width="28.47" height="13.82" rx="1.78" ry="1.78"/>
    <rect class="cls-6" x="325.41" y="511.29" width="18.66" height="9.62" rx="1.78" ry="1.78"/>
    <rect class="cls-6" x="347.32" y="511.29" width="18.66" height="9.62" rx="1.78" ry="1.78"/>
    <rect class="cls-6" x="369.3" y="511.29" width="18.66" height="9.62" rx="1.78" ry="1.78"/>
    <rect class="cls-6" x="391.27" y="511.29" width="18.66" height="9.62" rx="1.78" ry="1.78"/>
    <rect class="cls-6" x="413.25" y="511.29" width="18.66" height="9.62" rx="1.78" ry="1.78"/>
    <rect class="cls-6" x="435.22" y="511.29" width="18.66" height="9.62" rx="1.78" ry="1.78"/>
    <rect class="cls-6" x="457.2" y="511.29" width="18.66" height="9.62" rx="1.78" ry="1.78"/>
    <rect class="cls-6" x="479.11" y="511.29" width="18.66" height="9.62" rx="1.78" ry="1.78"/>
    <rect class="cls-6" x="501.09" y="511.29" width="18.66" height="9.62" rx="1.78" ry="1.78"/>
    <rect class="cls-6" x="523.06" y="511.29" width="18.66" height="9.62" rx="1.78" ry="1.78"/>
    <rect class="cls-6" x="545.04" y="511.29" width="18.66" height="9.62" rx="1.78" ry="1.78"/>
    <rect class="cls-6" x="567.01" y="511.29" width="18.66" height="9.62" rx="1.78" ry="1.78"/>
    <rect class="cls-6" x="588.93" y="511.29" width="18.66" height="9.62" rx="1.78" ry="1.78"/>
    <rect class="cls-6" x="303.12" y="599.64" width="24.46" height="18.15" rx="2.23" ry="2.23"/>
    <rect class="cls-6" x="331.59" y="599.64" width="23.25" height="18.15" rx="2.23" ry="2.23"/>
    <rect class="cls-6" x="498.92" y="599.64" width="18.22" height="18.15" rx="2.23" ry="2.23"/>
    <rect class="cls-6" x="520.64" y="599.64" width="23.5" height="18.15" rx="2.23" ry="2.23"/>
    <rect class="cls-6" x="568.86" y="597.79" width="19.17" height="9.05" rx="2.23" ry="2.23"/>
    <rect class="cls-6" x="568.86" y="608.68" width="19.17" height="9.05" rx="2.23" ry="2.23"/>
    <rect class="cls-6" x="590.01" y="608.68" width="19.17" height="9.05" rx="2.23" ry="2.23"/>
    <rect class="cls-6" x="547.78" y="608.68" width="19.17" height="9.05" rx="2.23" ry="2.23"/>
    <rect class="cls-6" x="359.42" y="599.64" width="135.68" height="18.15" rx="2.23" ry="2.23"/>
  </g>
  <g>
    <line class="cls-27" x1="455.93" y1="476.5" x2="455.93" y2="311.23"/>
    <path class="cls-5" d="m461.57,476.22c0,3.11-2.53,5.64-5.64,5.64s-5.64-2.53-5.64-5.64,2.53-5.64,5.64-5.64,5.64,2.53,5.64,5.64Z"/>
    <path class="cls-5" d="m461.57,311.51c0-3.11-2.53-5.64-5.64-5.64s-5.64,2.53-5.64,5.64,2.53,5.64,5.64,5.64,5.64-2.53,5.64-5.64Z"/>
  </g>
  <g>
    <polyline class="cls-27" points="59.5 311.23 59.5 372.19 866.24 372.19 866.24 311.23"/>
    <path class="cls-5" d="m53.86,311.51c0-3.11,2.53-5.64,5.64-5.64s5.64,2.53,5.64,5.64-2.53,5.64-5.64,5.64-5.64-2.53-5.64-5.64Z"/>
    <path class="cls-5" d="m871.88,311.51c0-3.11-2.53-5.64-5.64-5.64s-5.64,2.53-5.64,5.64,2.53,5.64,5.64,5.64,5.64-2.53,5.64-5.64Z"/>
  </g>
</svg>