<?xml version="1.0" encoding="UTF-8"?>
<svg id="Layer_1" data-name="Layer 1" xmlns="http://www.w3.org/2000/svg" viewBox="0 0 274.01 186.09">
  <defs>
    <style>
      .cls-1 {
        fill: #f2f2f2;
      }

      .cls-2 {
        fill: #0000b4;
      }

      .cls-3 {
        fill: #ebbc4b;
      }

      .cls-4 {
        fill: #e9ebef;
      }

      .cls-5 {
        fill: #fff;
      }

      .cls-6 {
        fill: #e5a712;
      }

      .cls-7 {
        fill: #999;
      }

      .cls-8 {
        fill: #8b8d8e;
      }

      .cls-9 {
        fill: #92ac88;
      }

      .cls-10 {
        fill: #939598;
      }

      .cls-11 {
        fill: #b7b2b0;
      }

      .cls-12 {
        fill: #b3b4b5;
      }

      .cls-13 {
        fill: #b3b3b3;
      }

      .cls-14 {
        fill: #b6d4a7;
      }

      .cls-15 {
        fill: #c1d4d7;
      }

      .cls-16 {
        fill: #8ea785;
      }

      .cls-17 {
        fill: #b0b581;
      }

      .cls-18 {
        fill: #b36212;
      }

      .cls-19 {
        fill: #a4a686;
      }

      .cls-20 {
        fill: #c0c2c4;
      }

      .cls-21 {
        fill: #d1d2d4;
      }

      .cls-22 {
        fill: #d6dbe3;
      }

      .cls-23 {
        fill: #d5dbdd;
      }

      .cls-24 {
        fill: #130c0e;
      }

      .cls-25 {
        fill: #24365a;
      }

      .cls-26 {
        fill: #0b1528;
      }

      .cls-27 {
        fill: #1c1d1a;
      }

      .cls-28 {
        fill: #89939b;
      }

      .cls-29 {
        fill: #98a1b1;
      }

      .cls-30 {
        fill: #a1bd95;
      }

      .cls-31 {
        fill: #71866a;
      }

      .cls-32 {
        fill: #96b08b;
      }

      .cls-33 {
        fill: #54626e;
      }

      .cls-34 {
        fill: #465f77;
      }

      .cls-35 {
        fill: #3a4f63;
      }

      .cls-36 {
        fill: #7a9071;
      }

      .cls-37 {
        fill: #070700;
        isolation: isolate;
        opacity: .05;
      }
    </style>
  </defs>
  <rect class="cls-23" x="76.22" y="130.37" width="111.72" height="43.88"/>
  <rect class="cls-20" x="76.05" y="173.68" width="111.87" height="2.69"/>
  <rect class="cls-5" x="79.26" y="133.9" width="6.45" height="3.33" rx=".62" ry=".62"/>
  <rect class="cls-5" x="79.26" y="138.37" width="6.72" height="4.78" rx=".62" ry=".62"/>
  <rect class="cls-5" x="86.58" y="138.37" width="6.72" height="4.78" rx=".62" ry=".62"/>
  <rect class="cls-5" x="93.89" y="138.37" width="6.72" height="4.78" rx=".62" ry=".62"/>
  <rect class="cls-5" x="101.2" y="138.37" width="6.72" height="4.78" rx=".62" ry=".62"/>
  <rect class="cls-5" x="108.54" y="138.37" width="6.72" height="4.78" rx=".62" ry=".62"/>
  <rect class="cls-5" x="115.85" y="138.37" width="6.72" height="4.78" rx=".62" ry=".62"/>
  <rect class="cls-5" x="123.16" y="138.37" width="6.72" height="4.78" rx=".62" ry=".62"/>
  <rect class="cls-5" x="130.47" y="138.37" width="6.72" height="4.78" rx=".62" ry=".62"/>
  <rect class="cls-5" x="137.79" y="138.37" width="6.72" height="4.78" rx=".62" ry=".62"/>
  <rect class="cls-5" x="145.1" y="138.37" width="6.72" height="4.78" rx=".62" ry=".62"/>
  <rect class="cls-5" x="152.43" y="138.37" width="6.72" height="4.78" rx=".62" ry=".62"/>
  <rect class="cls-5" x="159.75" y="138.37" width="6.72" height="4.78" rx=".62" ry=".62"/>
  <rect class="cls-5" x="167.06" y="138.37" width="6.72" height="4.78" rx=".62" ry=".62"/>
  <rect class="cls-5" x="174.59" y="138.37" width="9.85" height="4.78" rx=".62" ry=".62"/>
  <rect class="cls-5" x="79.15" y="151.37" width="11.23" height="4.78" rx=".62" ry=".62"/>
  <rect class="cls-5" x="173.12" y="151.37" width="11.23" height="4.78" rx=".62" ry=".62"/>
  <rect class="cls-5" x="91.71" y="151.37" width="6.28" height="4.78" rx=".62" ry=".62"/>
  <rect class="cls-5" x="99.07" y="151.37" width="6.28" height="4.78" rx=".62" ry=".62"/>
  <rect class="cls-5" x="106.4" y="151.37" width="6.28" height="4.78" rx=".62" ry=".62"/>
  <rect class="cls-5" x="113.76" y="151.37" width="6.28" height="4.78" rx=".62" ry=".62"/>
  <rect class="cls-5" x="121.11" y="151.37" width="6.28" height="4.78" rx=".62" ry=".62"/>
  <rect class="cls-5" x="128.47" y="151.37" width="6.28" height="4.78" rx=".62" ry=".62"/>
  <rect class="cls-5" x="135.83" y="151.37" width="6.28" height="4.78" rx=".62" ry=".62"/>
  <rect class="cls-5" x="143.18" y="151.37" width="6.28" height="4.78" rx=".62" ry=".62"/>
  <rect class="cls-5" x="150.54" y="151.37" width="6.28" height="4.78" rx=".62" ry=".62"/>
  <rect class="cls-5" x="157.9" y="151.37" width="6.28" height="4.78" rx=".62" ry=".62"/>
  <rect class="cls-5" x="79.15" y="157.62" width="14.47" height="5.02" rx=".62" ry=".62"/>
  <rect class="cls-5" x="169.88" y="157.62" width="14.47" height="5.02" rx=".62" ry=".62"/>
  <rect class="cls-5" x="94.92" y="157.62" width="6.28" height="5.02" rx=".62" ry=".62"/>
  <rect class="cls-5" x="102.28" y="157.62" width="6.28" height="5.02" rx=".62" ry=".62"/>
  <rect class="cls-5" x="109.64" y="157.62" width="6.28" height="5.02" rx=".62" ry=".62"/>
  <rect class="cls-5" x="116.99" y="157.62" width="6.28" height="5.02" rx=".62" ry=".62"/>
  <rect class="cls-5" x="124.35" y="157.62" width="6.28" height="5.02" rx=".62" ry=".62"/>
  <rect class="cls-5" x="131.71" y="157.62" width="6.28" height="5.02" rx=".62" ry=".62"/>
  <rect class="cls-5" x="139.04" y="157.62" width="6.28" height="5.02" rx=".62" ry=".62"/>
  <rect class="cls-5" x="146.4" y="157.62" width="6.28" height="5.02" rx=".62" ry=".62"/>
  <rect class="cls-5" x="153.76" y="157.62" width="6.28" height="5.02" rx=".62" ry=".62"/>
  <rect class="cls-5" x="161.11" y="157.62" width="6.28" height="5.02" rx=".62" ry=".62"/>
  <rect class="cls-5" x="165.25" y="151.37" width="6.28" height="4.78" rx=".62" ry=".62"/>
  <rect class="cls-5" x="177.61" y="144.87" width="6.72" height="4.78" rx=".62" ry=".62"/>
  <rect class="cls-5" x="170.3" y="144.87" width="6.72" height="4.78" rx=".62" ry=".62"/>
  <rect class="cls-5" x="162.99" y="144.87" width="6.72" height="4.78" rx=".62" ry=".62"/>
  <rect class="cls-5" x="155.67" y="144.87" width="6.72" height="4.78" rx=".62" ry=".62"/>
  <rect class="cls-5" x="148.36" y="144.87" width="6.72" height="4.78" rx=".62" ry=".62"/>
  <rect class="cls-5" x="141.05" y="144.87" width="6.72" height="4.78" rx=".62" ry=".62"/>
  <rect class="cls-5" x="133.71" y="144.87" width="6.72" height="4.78" rx=".62" ry=".62"/>
  <rect class="cls-5" x="126.4" y="144.87" width="6.72" height="4.78" rx=".62" ry=".62"/>
  <rect class="cls-5" x="119.09" y="144.87" width="6.72" height="4.78" rx=".62" ry=".62"/>
  <rect class="cls-5" x="111.77" y="144.87" width="6.72" height="4.78" rx=".62" ry=".62"/>
  <rect class="cls-5" x="104.46" y="144.87" width="6.72" height="4.78" rx=".62" ry=".62"/>
  <rect class="cls-5" x="97.15" y="144.87" width="6.72" height="4.78" rx=".62" ry=".62"/>
  <rect class="cls-5" x="89.81" y="144.87" width="6.72" height="4.78" rx=".62" ry=".62"/>
  <rect class="cls-5" x="79.15" y="144.87" width="9.85" height="4.78" rx=".62" ry=".62"/>
  <rect class="cls-5" x="86.86" y="133.9" width="6.45" height="3.33" rx=".62" ry=".62"/>
  <rect class="cls-5" x="94.44" y="133.9" width="6.45" height="3.33" rx=".62" ry=".62"/>
  <rect class="cls-5" x="102.04" y="133.9" width="6.45" height="3.33" rx=".62" ry=".62"/>
  <rect class="cls-5" x="109.64" y="133.9" width="6.45" height="3.33" rx=".62" ry=".62"/>
  <rect class="cls-5" x="117.24" y="133.9" width="6.45" height="3.33" rx=".62" ry=".62"/>
  <rect class="cls-5" x="124.84" y="133.9" width="6.45" height="3.33" rx=".62" ry=".62"/>
  <rect class="cls-5" x="132.43" y="133.9" width="6.45" height="3.33" rx=".62" ry=".62"/>
  <rect class="cls-5" x="140.01" y="133.9" width="6.45" height="3.33" rx=".62" ry=".62"/>
  <rect class="cls-5" x="147.61" y="133.9" width="6.45" height="3.33" rx=".62" ry=".62"/>
  <rect class="cls-5" x="155.21" y="133.9" width="6.45" height="3.33" rx=".62" ry=".62"/>
  <rect class="cls-5" x="162.81" y="133.9" width="6.45" height="3.33" rx=".62" ry=".62"/>
  <rect class="cls-5" x="170.41" y="133.9" width="6.45" height="3.33" rx=".62" ry=".62"/>
  <rect class="cls-5" x="177.99" y="133.9" width="6.45" height="3.33" rx=".62" ry=".62"/>
  <rect class="cls-5" x="79.15" y="164.45" width="8.46" height="6.28" rx=".77" ry=".77"/>
  <rect class="cls-5" x="89" y="164.45" width="8.04" height="6.28" rx=".77" ry=".77"/>
  <rect class="cls-5" x="146.86" y="164.45" width="6.3" height="6.28" rx=".77" ry=".77"/>
  <rect class="cls-5" x="154.37" y="164.45" width="8.13" height="6.28" rx=".77" ry=".77"/>
  <rect class="cls-5" x="171.05" y="163.81" width="6.63" height="3.13" rx=".77" ry=".77"/>
  <rect class="cls-5" x="171.05" y="167.58" width="6.63" height="3.13" rx=".77" ry=".77"/>
  <rect class="cls-5" x="178.36" y="167.58" width="6.63" height="3.13" rx=".77" ry=".77"/>
  <rect class="cls-5" x="163.76" y="167.58" width="6.63" height="3.13" rx=".77" ry=".77"/>
  <rect class="cls-5" x="98.62" y="164.45" width="46.92" height="6.28" rx=".77" ry=".77"/>
  <g>
    <rect class="cls-22" x="110.5" y="115.15" width="42.97" height="4.69"/>
    <rect class="cls-4" x="110.5" y="119.74" width="42.97" height="10.75"/>
    <path class="cls-5" d="m48.38,99.67v11.01c0,2.43,1.97,4.41,4.41,4.41h157.55c2.43,0,4.41-1.97,4.41-4.41v-11.01H48.38Z"/>
    <path class="cls-13" d="m215.56,4.41C215.56,1.97,213.59,0,211.16,0H53.56c-2.43-.06-4.45,1.86-4.51,4.29,0,.04,0,.07,0,.11v95.35h166.52V4.41Z"/>
    <rect class="cls-7" x="128.18" y="103.92" width="6.94" height="6.94" rx="3.47" ry="3.47"/>
    <path class="cls-26" d="m61.62,2.71h141.39c4.05,0,7.33,3.28,7.33,7.33h0v86.92H54.31V10.02c.01-4.03,3.28-7.3,7.31-7.31Z"/>
  </g>
  <path class="cls-15" d="m206.75,11.08c0-2.71-2.2-4.91-4.91-4.91H62.08c-2.7,0-4.89,2.19-4.89,4.89,0,0,0,.01,0,.02v4.41h149.56v-4.41Z"/>
  <rect class="cls-2" x="57.19" y="15.57" width="149.6" height="6.89"/>
  <rect class="cls-1" x="57.19" y="22.47" width="149.6" height="71.19"/>
  <rect class="cls-19" x="65.72" y="26.28" width="15.02" height="8.83"/>
  <rect class="cls-15" x="65.72" y="38.19" width="15.02" height="20.07"/>
  <rect class="cls-15" x="65.72" y="62.95" width="15.02" height="11.5"/>
  <rect class="cls-18" x="65.72" y="77.31" width="15.02" height="12"/>
  <rect class="cls-15" x="85.48" y="27.67" width="81.61" height="4.54"/>
  <rect class="cls-17" x="85.39" y="67.12" width="81.76" height="3.7"/>
  <rect class="cls-17" x="85.39" y="72.67" width="81.76" height="3.7"/>
  <rect class="cls-17" x="85.39" y="78.22" width="81.76" height="3.7"/>
  <rect class="cls-17" x="85.39" y="83.75" width="81.76" height="3.7"/>
  <rect class="cls-18" x="175.08" y="27.49" width="23.19" height="21.32"/>
  <rect class="cls-15" x="175.08" y="54.03" width="23.19" height="29.76"/>
  <rect class="cls-19" x="67.96" y="17.42" width="11.92" height="3.19"/>
  <rect class="cls-11" x="85.43" y="17.6" width="19.14" height="2.86"/>
  <rect class="cls-11" x="113.32" y="17.6" width="19.14" height="2.86"/>
  <rect class="cls-11" x="141.18" y="17.6" width="19.14" height="2.86"/>
  <rect class="cls-11" x="169.04" y="17.6" width="19.14" height="2.86"/>
  <path d="m94.04,51.65v-2.91h7.27v6.61c-.89.8-1.93,1.42-3.06,1.81-1.3.52-2.69.79-4.1.79-1.6.03-3.17-.35-4.58-1.1-1.26-.68-2.28-1.73-2.93-3-.66-1.37-1-2.88-.99-4.41-.03-1.62.35-3.21,1.1-4.65.71-1.41,1.85-2.55,3.26-3.26,1.23-.62,2.59-.93,3.96-.9,1.72-.1,3.43.36,4.87,1.3,1.15.9,1.93,2.18,2.2,3.61l-3.37.62c-.22-.77-.68-1.45-1.32-1.94-.72-.48-1.58-.73-2.44-.7-1.32-.06-2.6.44-3.52,1.39-.95,1.17-1.41,2.66-1.3,4.16-.1,1.58.37,3.14,1.32,4.41.87.99,2.14,1.54,3.46,1.5.75,0,1.5-.14,2.2-.42.65-.25,1.27-.59,1.83-1.01v-1.89h-3.85Z"/>
  <path d="m104.46,57.71v-16.72h11.48v2.82h-8.08v3.96h6.98v2.82h-6.98v7.11h-3.39Z"/>
  <path d="m118.65,57.71v-16.72h12.42v2.82h-8.96v3.7h8.41v2.82h-8.41v4.56h9.36v2.82h-12.82Z"/>
  <path d="m134.35,40.99h6.61c.99-.02,1.97.03,2.95.15.63.1,1.23.34,1.76.7.52.36.96.84,1.28,1.39.35.59.52,1.27.51,1.96.03,1.57-.9,3.01-2.36,3.61.93.24,1.76.77,2.36,1.52.56.73.85,1.62.84,2.53,0,1.55-.74,3.01-1.98,3.94-.66.43-1.42.71-2.2.79h-9.76v-16.61Zm3.37,2.78v3.88h4.65c.51-.03.99-.24,1.37-.59.34-.35.52-.82.51-1.3.02-.47-.14-.92-.44-1.28-.33-.34-.78-.54-1.26-.57h-2.91l-1.92-.13Zm0,6.61v4.41h3.13c.78.06,1.56.06,2.33,0,1.02-.15,1.75-1.05,1.7-2.07,0-.45-.12-.9-.37-1.28-.26-.37-.63-.64-1.06-.77-.98-.21-1.99-.29-3-.24l-2.73-.04Z"/>
  <path d="m150.36,52.27l3.3-.33c.11.93.54,1.8,1.21,2.44.7.54,1.56.82,2.44.77.88.06,1.75-.19,2.47-.7.51-.38.81-.97.81-1.61.01-.37-.11-.73-.35-1.01-.34-.33-.75-.58-1.21-.7-.4-.15-1.3-.4-2.71-.75-1.38-.25-2.69-.81-3.81-1.65-.99-.83-1.56-2.06-1.54-3.35,0-.85.24-1.69.7-2.4.51-.76,1.24-1.35,2.09-1.7,1.05-.43,2.17-.65,3.3-.64,1.7-.13,3.39.36,4.76,1.39,1.06.93,1.67,2.27,1.67,3.68l-3.39.13c-.06-.71-.39-1.38-.93-1.85-.65-.43-1.43-.62-2.2-.55-.78-.03-1.54.18-2.2.59-.33.24-.53.62-.53,1.04,0,.4.18.78.51,1.01.95.57,2.01.95,3.11,1.12,1.25.26,2.47.67,3.63,1.21.77.37,1.41.96,1.85,1.7,1.42,2.41.61,5.52-1.8,6.93-.19.11-.38.21-.58.29-1.17.43-2.41.63-3.66.59-1.74.12-3.47-.4-4.87-1.45-1.21-1.08-1.96-2.59-2.09-4.21Z"/>
  <polygon class="cls-27" points="164.53 64.87 155.63 59.08 155.63 59.12 163.29 72.31 164.51 71.59 160.8 65.86 164.53 64.87"/>
  <polygon class="cls-27" points="156.22 69.71 158.91 66.96 162.06 73.02 163.29 72.31 155.63 59.12 155.61 59.1 156.22 69.71"/>
  <g>
    <polygon class="cls-28" points="273.68 103.26 219.98 93.29 207.57 160.12 273.55 103.82 273.68 103.26"/>
    <polygon class="cls-33" points="258.82 183.22 273.55 103.82 207.57 160.12 205.14 173.26 258.82 183.22"/>
    <rect class="cls-5" x="222.47" y="115.67" width="31.39" height="31.98" transform="translate(64.66 341.3) rotate(-79.32)"/>
    <rect class="cls-24" x="238.33" y="111.12" width="1.56" height="23.06" transform="translate(74.48 335.05) rotate(-79.37)"/>
    <rect class="cls-24" x="236.54" y="116.56" width="1.56" height="23.06" transform="translate(66.82 337.04) rotate(-79.14)"/>
    <rect class="cls-24" x="236.71" y="120.21" width="1.56" height="23.06" transform="translate(64.21 340.87) rotate(-79.37)"/>
    <rect class="cls-24" x="235.9" y="124.79" width="1.56" height="23.06" transform="translate(59.06 343.81) rotate(-79.37)"/>
    <polygon class="cls-25" points="217.62 106.37 215.27 105.93 203.33 172.97 205.4 173.36 217.62 106.37"/>
    <polygon class="cls-3" points="217.74 106.4 220.14 93.37 217.79 92.94 215.45 105.96 217.74 106.4"/>
    <polygon class="cls-6" points="218.12 93 209.02 91.31 206.62 104.29 215.74 106.02 218.12 93"/>
    <polygon class="cls-3" points="209.02 91.31 205.53 97.54 203.15 110.53 206.69 104.29 209.02 91.31"/>
    <polygon class="cls-25" points="194.18 171.27 206.69 104.29 203.15 110.53 191.6 174.39 194.18 171.27"/>
    <polygon class="cls-5" points="257.09 182.95 194.18 171.27 192.59 173.2 256.6 184.67 257.09 182.95"/>
    <polygon class="cls-29" points="257.09 182.95 256.6 184.67 192.59 173.2 191.6 174.39 257.09 186.09 258.09 183.15 257.09 182.95"/>
    <polygon class="cls-29" points="206.62 104.29 194.18 171.27 203.5 173 215.74 106.02 206.62 104.29"/>
  </g>
  <g>
    <polygon class="cls-9" points="50.21 113.66 -.67 114.54 -.1 144.8 50.76 143.92 50.21 113.66"/>
    <polygon class="cls-31" points="-.1 144.8 -.05 149.63 50.81 148.74 50.76 143.92 -.1 144.8"/>
    <rect class="cls-14" x="3.63" y="117.91" width="46.85" height="22.4" transform="translate(-2.25 .49) rotate(-1)"/>
    <ellipse class="cls-30" cx="26.22" cy="128.41" rx="6.3" ry="7.73" transform="translate(-2.24 .48) rotate(-1)"/>
    <path class="cls-31" d="m25.85,131.12v-2.4c-.64-.14-1.21-.47-1.65-.95-.37-.44-.58-1.01-.57-1.59,0-.58.19-1.14.57-1.59.41-.44.97-.71,1.56-.77v-.55h.84v.57c.54.04,1.06.25,1.48.59.37.37.62.85.7,1.37l-1.45.2c-.06-.4-.33-.75-.7-.9v2.2c.71.12,1.37.45,1.89.95.36.42.55.96.53,1.52.03.64-.19,1.27-.59,1.76-.45.5-1.07.82-1.74.9v1.06h-.84v-1.04c-.61-.06-1.18-.31-1.63-.73-.45-.48-.74-1.09-.81-1.74l1.5-.18c.05.29.17.56.35.79.15.21.34.39.57.51Zm-.11-6.04c-.21.08-.39.22-.53.4-.13.18-.19.4-.18.62,0,.2.07.4.18.57.15.19.35.32.57.4l-.04-1.98Zm.95,6.1c.28-.05.53-.2.7-.42.17-.21.26-.48.24-.75,0-.24-.08-.48-.24-.66-.21-.21-.47-.35-.75-.42l.04,2.25Z"/>
    <polygon class="cls-36" points="22.3 138.22 22.26 136.28 20.39 136.3 22.3 138.22 22.3 138.22"/>
    <polygon class="cls-32" points="22.3 138.22 20.39 136.3 18.41 136.34 19.22 137.31 18.43 138.28 22.3 138.22"/>
    <polygon class="cls-36" points="30.45 138.06 30.43 136.15 32.3 136.1 30.45 138.06 30.45 138.06"/>
    <polygon class="cls-32" points="30.45 138.06 32.3 136.1 34.29 136.06 33.49 137.05 34.33 138 30.45 138.06"/>
    <rect class="cls-9" x="20.37" y="134.86" width="11.94" height="1.34" transform="translate(-2.36 .48) rotate(-1)"/>
    <circle class="cls-16" cx="13.3" cy="129.38" r="2"/>
    <rect class="cls-37" x="-.33" y="114.39" width="26.76" height="34.8" transform="translate(-2.3 .25) rotate(-1)"/>
  </g>
  <rect class="cls-34" x="41.91" y="118.66" width="41.08" height="41.76"/>
  <rect class="cls-35" x="41.91" y="103.77" width="41.08" height="14.89"/>
  <rect class="cls-10" x="45.74" y="122.67" width="7.73" height="7.55"/>
  <rect class="cls-10" x="54.31" y="122.67" width="7.73" height="7.55"/>
  <rect class="cls-10" x="62.85" y="122.67" width="7.73" height="7.55"/>
  <rect class="cls-10" x="71.42" y="122.67" width="7.73" height="7.55"/>
  <rect class="cls-21" x="45.74" y="131.39" width="7.73" height="7.55"/>
  <rect class="cls-21" x="45.74" y="140.13" width="7.73" height="7.55"/>
  <path class="cls-5" d="m49.22,128.59v-1.78h-1.78v-.75h1.78v-1.72h.75v1.76h1.78v.75h-1.78v1.78l-.75-.04Z"/>
  <rect class="cls-21" x="45.74" y="148.85" width="7.73" height="7.55"/>
  <rect class="cls-21" x="54.31" y="131.39" width="7.73" height="7.55"/>
  <rect class="cls-21" x="54.31" y="140.13" width="7.73" height="7.55"/>
  <rect class="cls-21" x="54.31" y="148.85" width="7.73" height="7.55"/>
  <rect class="cls-21" x="62.85" y="131.39" width="7.73" height="7.55"/>
  <rect class="cls-21" x="62.85" y="140.13" width="7.73" height="7.55"/>
  <rect class="cls-21" x="62.85" y="148.85" width="7.73" height="7.55"/>
  <rect class="cls-21" x="71.42" y="131.39" width="7.73" height="7.55"/>
  <rect class="cls-21" x="71.42" y="140.13" width="7.73" height="7.55"/>
  <rect class="cls-21" x="71.42" y="148.85" width="7.73" height="7.55"/>
  <path class="cls-5" d="m56.64,126.85v-.81h3.04v.81h-3.04Z"/>
  <path class="cls-5" d="m73.29,128.57l1.56-2.2-1.45-2.03h.9l.66.99.29.48c.12-.15.23-.32.33-.48l.73-.99h.86l-1.48,2,1.59,2.2h-.88l-.88-1.32-.24-.35-1.1,1.67-.88.02Z"/>
  <rect class="cls-5" x="64.13" y="126.08" width="5.2" height=".7"/>
  <circle class="cls-5" cx="66.73" cy="124.87" r=".64"/>
  <circle class="cls-5" cx="66.73" cy="128.02" r=".64"/>
  <polygon class="cls-12" points="79.07 106.67 45.83 106.67 45.83 115.75 56.49 115.75 79.07 106.89 79.07 106.67"/>
  <polygon class="cls-8" points="79.07 106.89 56.49 115.75 79.07 115.75 79.07 106.89"/>
</svg>