<?xml version="1.0" encoding="UTF-8"?>
<svg id="Layer_1" data-name="Layer 1" xmlns="http://www.w3.org/2000/svg" xmlns:xlink="http://www.w3.org/1999/xlink" viewBox="0 0 299 399">
  <defs>
    <style>
      .cls-1, .cls-2 {
        font-family: ArialMT, Arial;
        font-size: 18px;
      }

      .cls-3 {
        letter-spacing: -.07em;
      }

      .cls-2 {
        fill: #f2f2f2;
      }

      .cls-4 {
        fill: #f4bc3a;
        filter: url(#drop-shadow-5);
      }

      .cls-5 {
        fill: #3a4b6f;
        filter: url(#drop-shadow-2);
      }

      .cls-6 {
        fill: #dee4f1;
        filter: url(#drop-shadow-4);
      }

      .cls-7 {
        fill: #91a0be;
        filter: url(#drop-shadow-3);
      }

      .cls-8 {
        fill: #e7a60d;
        filter: url(#drop-shadow-1);
      }
    </style>
    <filter id="drop-shadow-1" filterUnits="userSpaceOnUse">
      <feOffset dx="2" dy="2"/>
      <feGaussianBlur result="blur" stdDeviation="5"/>
      <feFlood flood-color="#000" flood-opacity=".59"/>
      <feComposite in2="blur" operator="in"/>
      <feComposite in="SourceGraphic"/>
    </filter>
    <filter id="drop-shadow-2" filterUnits="userSpaceOnUse">
      <feOffset dx="2" dy="2"/>
      <feGaussianBlur result="blur-2" stdDeviation="5"/>
      <feFlood flood-color="#000" flood-opacity=".59"/>
      <feComposite in2="blur-2" operator="in"/>
      <feComposite in="SourceGraphic"/>
    </filter>
    <filter id="drop-shadow-3" filterUnits="userSpaceOnUse">
      <feOffset dx="2" dy="2"/>
      <feGaussianBlur result="blur-3" stdDeviation="5"/>
      <feFlood flood-color="#000" flood-opacity=".59"/>
      <feComposite in2="blur-3" operator="in"/>
      <feComposite in="SourceGraphic"/>
    </filter>
    <filter id="drop-shadow-4" filterUnits="userSpaceOnUse">
      <feOffset dx="2" dy="2"/>
      <feGaussianBlur result="blur-4" stdDeviation="5"/>
      <feFlood flood-color="#000" flood-opacity=".59"/>
      <feComposite in2="blur-4" operator="in"/>
      <feComposite in="SourceGraphic"/>
    </filter>
    <filter id="drop-shadow-5" filterUnits="userSpaceOnUse">
      <feOffset dx="2" dy="2"/>
      <feGaussianBlur result="blur-5" stdDeviation="5"/>
      <feFlood flood-color="#000" flood-opacity=".59"/>
      <feComposite in2="blur-5" operator="in"/>
      <feComposite in="SourceGraphic"/>
    </filter>
  </defs>
  <polygon class="cls-8" points="127.22 111.25 127.22 45.75 70.5 13 13.78 45.75 13.78 111.25 70.5 144 127.22 111.25"/>
  <polygon class="cls-5" points="127.22 349.25 127.22 283.75 70.5 251 13.78 283.75 13.78 349.25 70.5 382 127.22 349.25"/>
  <polygon class="cls-7" points="281.22 111.25 281.22 45.75 224.5 13 167.78 45.75 167.78 111.25 224.5 144 281.22 111.25"/>
  <polygon class="cls-6" points="204.22 230.25 204.22 164.75 147.5 132 90.78 164.75 90.78 230.25 147.5 263 204.22 230.25"/>
  <polygon class="cls-4" points="281.22 349.25 281.22 283.75 224.5 251 167.78 283.75 167.78 349.25 224.5 382 281.22 349.25"/>
  <text class="cls-1" transform="translate(33.16 85.3)"><tspan x="0" y="0">S</tspan><tspan class="cls-3" x="12.01" y="0">T</tspan><tspan x="21.67" y="0">AFINS</tspan></text>
  <text class="cls-1" transform="translate(178.99 85.3)"><tspan x="0" y="0">SOMARDS</tspan></text>
  <text class="cls-1" transform="translate(205.49 323.3)"><tspan x="0" y="0">PEO</tspan></text>
  <text class="cls-1" transform="translate(124.18 204.3)"><tspan class="cls-3" x="0" y="0">A</tspan><tspan x="10.67" y="0">TEC</tspan></text>
  <text class="cls-2" transform="translate(50.51 323.3)"><tspan x="0" y="0">AMC</tspan></text>
</svg>