<?xml version="1.0" encoding="UTF-8"?>
<svg id="Layer_1" data-name="Layer 1" xmlns="http://www.w3.org/2000/svg" viewBox="0 0 384 398.72">
  <defs>
    <style>
      .cls-1, .cls-2 {
        fill: #f2f2f2;
      }

      .cls-3 {
        fill: #dee4f1;
      }

      .cls-2 {
        font-family: Arial-Black, 'Arial Black';
        font-size: 58.57px;
        font-weight: 800;
      }

      .cls-4 {
        fill: none;
        stroke: gray;
        stroke-linecap: round;
        stroke-miterlimit: 10;
        stroke-width: 34.34px;
      }
    </style>
  </defs>
  <circle class="cls-4" cx="189.5" cy="198.78" r="167.65"/>
  <path class="cls-3" d="m189.5,13.97v34.34c82.97,0,150.48,67.51,150.48,150.48s-67.51,150.48-150.48,150.48S39.02,281.76,39.02,198.78c0-16.08,2.56-31.56,7.25-46.1l-32.67-10.62c-5.78,17.88-8.92,36.94-8.92,56.72,0,101.91,82.91,184.82,184.82,184.82s184.82-82.91,184.82-184.82S291.41,13.97,189.5,13.97Z"/>
  <g>
    <text class="cls-2" transform="translate(151.83 220.99)"><tspan x="0" y="0">80%</tspan></text>
    <path class="cls-1" d="m112.73,221.58c-.78,0-1.53-1.59-1.74-2.17-2.27-8.87-7.52-16.15-11.52-20.7-4.15-4.71-7.87-7.55-8.22-7.81-.87-.91-.8-1.25-.77-1.31.06-.14.41-.28,1.06-.28.28,0,.49.03.49.03h.01s.01,0,.01,0c5.54.28,10.64,3.79,13.94,6.69,3.6,3.16,5.91,6.3,5.93,6.33l.39.54.24-.62c2.31-6,6.28-12.13,11.79-18.23,4.42-4.89,9.84-9.77,16.11-14.51,10.51-7.94,19.94-12.82,20.33-13.02,3.18-1.34,4.56-1.74,5.15-1.81-.26.3-.81.77-1.38,1.18-21.04,13.21-33.55,29.77-40.34,41.34-7.18,12.22-9.65,21.61-9.8,22.17-.76,1.9-1.39,2.18-1.69,2.18"/>
  </g>
</svg>