<?xml version="1.0" encoding="UTF-8"?>
<svg id="Layer_1" data-name="Layer 1" xmlns="http://www.w3.org/2000/svg" viewBox="0 0 214.81 255.2">
  <defs>
    <style>
      .cls-1, .cls-2, .cls-3 {
        fill: none;
      }

      .cls-4 {
        fill: #fff;
      }

      .cls-5 {
        fill: #7f3b1c;
      }

      .cls-6 {
        fill: #a1a1a9;
      }

      .cls-7 {
        fill: #b0856e;
      }

      .cls-8 {
        fill: #bdbdbe;
      }

      .cls-9 {
        fill: #1a1a1a;
      }

      .cls-10 {
        fill: #a2a1a9;
      }

      .cls-11 {
        fill: #95949a;
      }

      .cls-12 {
        fill: #3a3b3d;
      }

      .cls-2 {
        stroke-miterlimit: 10;
        stroke-width: 5.1px;
      }

      .cls-2, .cls-3 {
        stroke: #3a3b3d;
      }

      .cls-3 {
        stroke-miterlimit: 10.06;
        stroke-width: 7.18px;
      }
    </style>
  </defs>
  <g id="Clipboard_and_Paper" data-name="Clipboard and Paper">
    <path class="cls-5" d="m214.25,198.21L155.68,8.97c-2.12-6.71-9.24-10.46-15.97-8.4L8.93,41.03c-6.7,2.12-10.43,9.25-8.36,15.96l58.56,189.25c2.1,6.69,9.19,10.44,15.9,8.41l130.76-40.48c6.73-2.08,10.51-9.22,8.45-15.96Zm-56.23,4.78c-.52,5.51-1.71,11.74-5.35,16.12-5.63,6.76-24.32,3.75-30.02-4.59-3.76-5.51-4.65-15.77-1.95-21.93,2.03-4.48,10.7-3.47,14.59-3.42,5.65.18,11.21,1.44,16.38,3.72,2.21.97,4.15,1.95,5.48,4.09.4.63.69,1.32.87,2.04.22,1.32.22,2.67,0,3.99h0Z"/>
    <path class="cls-7" d="m157.16,196.95c-1.32-2.09-3.27-3.12-5.48-4.09-5.17-2.27-10.73-3.53-16.38-3.72-3.89,0-12.55-.97-14.59,3.42-2.75,6.17-1.87,16.42,1.95,21.93,5.72,8.35,24.38,11.35,30.02,4.59,3.64-4.38,4.86-10.6,5.35-16.12.21-1.33.21-2.68,0-4.01-.17-.72-.47-1.4-.87-2.02Z"/>
    <path class="cls-4" d="m196.92,178.7L150.5,28.79c-2.1-6.71-9.23-10.47-15.95-8.41L24.12,54.54c-6.72,2.1-10.48,9.23-8.42,15.96l46.4,149.9c2.09,6.73,9.24,10.49,15.97,8.42l45.05-13.93v-.07c-3.76-5.5-4.63-15.75-1.89-21.92,2.04-4.47,10.7-3.47,14.59-3.41,5.63.18,11.17,1.44,16.32,3.72,2.21.97,4.15,1.95,5.48,4.08.41.63.7,1.32.87,2.04.21,1.32.21,2.67,0,4,.01.23-.01.45-.07.67l30.15-9.33c6.71-2.11,10.44-9.25,8.35-15.97Z"/>
    <path class="cls-1" d="m153.09,219.42c3.49-4.19,4.73-10.09,5.29-15.45l-35.26,10.92c5.76,8.31,24.32,11.28,29.97,4.52Z"/>
    <path class="cls-4" d="m158.44,199.32c-.17-.73-.46-1.42-.87-2.04-1.32-2.09-3.27-3.13-5.48-4.08-5.16-2.27-10.7-3.53-16.33-3.72-3.89-.06-12.56-1.02-14.54,3.41-2.74,6.13-1.88,16.43,1.89,21.92v.07l35.26-10.92c0-.21,0-.44.07-.66.2-1.32.21-2.67,0-3.99Z"/>
  </g>
  <g id="Paper_content" data-name="Paper content">
    <rect class="cls-3" x="52.89" y="58.46" width="86.54" height="53.65" transform="translate(-21.06 32.56) rotate(-17.35)"/>
    <line class="cls-2" x1="62.28" y1="157.1" x2="162.54" y2="127.35"/>
    <line class="cls-2" x1="58.99" y1="147.12" x2="159.24" y2="117.38"/>
    <line class="cls-2" x1="65.58" y1="168.21" x2="165.83" y2="138.46"/>
    <line class="cls-2" x1="69.45" y1="181.24" x2="169.7" y2="151.49"/>
    <path class="cls-12" d="m122.85,192.77l-19.81,5.84c-.43,1.18-.93,2.32-1.52,3.43l19.81-5.84c.23-.83.51-1.64.86-2.43.17-.36.4-.7.66-1Z"/>
    <path class="cls-12" d="m136.74,190.39c1.15.02,2.3.09,3.44.22l37.49-11.13-.82-2.74-45.56,13.62c2.07-.13,4.06,0,5.44.03Z"/>
    <path class="cls-1" d="m76.61,206.49l26.43-7.84c1.1-2.82,1.59-5.84,1.45-8.87-.39-4.72-8.56-6.52-12.08-7.66-5.16-1.6-10.59-2.19-15.97-1.72-2.31.18-4.39.52-6.24,2.04-.56.45-1.05.99-1.43,1.6-.61,1.14-1.04,2.37-1.26,3.65-1.26,5.21-2.15,11.27-.24,16.41,2.92,7.94,20.8,11.02,28.57,5.17,2.39-1.94,4.33-4.37,5.67-7.14l-24.08,7.14-.8-2.77Z"/>
    <path class="cls-11" d="m76.61,206.49l.82,2.75,24.09-7.15c.58-1.11,1.09-2.26,1.52-3.43l-26.43,7.83Z"/>
    <path class="cls-1" d="m158.58,198.09c-1.32-2.03-3.27-3.05-5.49-4.03-4.12-1.77-8.47-2.93-12.92-3.45l-18.85,5.59c-1.63,6.13-.54,14.5,2.75,19.28,5.72,8.27,24.38,11.21,30.02,4.54,3.65-4.32,4.86-10.49,5.36-15.95.21-1.31.21-2.65,0-3.96-.17-.72-.47-1.4-.88-2.02Z"/>
    <path class="cls-1" d="m122.85,192.77l8.45-2.51c-3.24.05-6.74.52-8.45,2.51Z"/>
    <path class="cls-11" d="m136.74,190.39c-1.38,0-3.37-.16-5.44-.13l-8.45,2.51c-.27.29-.49.62-.66.97-.34.79-.63,1.6-.86,2.43l18.85-5.58c-1.14-.13-2.29-.2-3.44-.2Z"/>
  </g>
  <g id="Glasses">
    <path class="cls-6" d="m68.65,184.67c.07.13,5.38-.48,5.79-.48,4.09-.07,8.16.73,11.91,2.35,6.76,3.06,14.06,4.6,21.27,6.21,3.66.82,7.37,1.59,10.95,2.72,3.58,1.14,7.25,1.31,10.82,2.27,6.81,1.81,10.78,6.88,15.3,11.88,2.91,3.24,5.79,6.48,8.65,9.73l2.48-2.74c-1.98-2.55-4-5.06-6.05-7.53-3-3.4-6.22-6.61-9.63-9.6-5.61-5.22-13.99-7.23-21.06-10.05l-19.77-4.28-17.2-4.86-12.44-1.3-2.4,3.18,1.38,2.51Z"/>
    <path class="cls-6" d="m64.35,198.97c.13-.11.26-.22.41-.3,4.36-2.7,8.66-5.66,13.33-7.78,3.7-1.78,7.76-2.71,11.87-2.74,4.53,0,8.98,1.1,13.49,1.4,4.08.28,8.16.45,12.24.73l9.73.71,16,.97,7.65.97,9.54,2.23c.37.09,1.22,2.45,1.42,2.87-.52.76-1.43,1.16-2.34,1.02-5.73-.63-11.46-1.18-17.19-1.73-8.81-1.24-17.51-2.82-26.4-3.75l-8.75-1.11c-6.49-.82-13.27-1.69-19.76-.13-3.41.82-6.17,2.65-9.18,4.37-3.89,2.2-7.78,4.3-11.67,6.55l-.53-3.41c-.07-.22-.07-.46,0-.68.04-.07.1-.12.16-.18Z"/>
    <path class="cls-1" d="m92.89,182.62c-5.03-1.84-10.37-2.69-15.73-2.51-2.21-.16-4.41.42-6.26,1.64-.57.41-1.07.91-1.48,1.49-.66,1.09-1.13,2.27-1.41,3.51-1.46,5.03-2.61,10.92-.97,16.04,2.61,7.93,20.12,11.84,28.09,6.52,5.25-3.51,9.61-12.25,9.36-18.59-.15-4.62-8.17-6.82-11.59-8.1Z"/>
    <path class="cls-1" d="m157.48,199.68c-.15-.69-.43-1.35-.82-1.95-1.25-1.95-3.06-2.92-5.2-3.89-4.92-2.15-10.2-3.35-15.56-3.51-3.67,0-11.91-.97-13.81,3.24-2.6,5.84-1.77,15.56,1.81,20.74,5.43,7.9,23.15,10.7,28.5,4.34,3.45-4.09,4.58-10.02,5.11-15.24.19-1.24.18-2.49-.02-3.73Z"/>
    <path class="cls-9" d="m167.13,194.46c-11.01-3.65-22.72-7.5-34.32-8.45-4.2-.34-8.16,1.22-12.35,1.54-1.98.09-3.97.01-5.94-.24-3.19-.33-6.26-1.42-8.95-3.17-2.63-1.63-5.16-3.5-8.16-4.43-11.13-3.4-23.47-4.16-35.01-4.86l-1.32,6.65c3.54,1.95,2.92,4.86,2.92,4.86,0,0-1.76,10.54-1.44,13.92.97,10.07,15.82,15.72,24.63,14.35,7.04-1.1,14.65-4.27,18.13-10.85.97-1.78,1.2-3.82,1.95-5.65.29-.88.81-1.66,1.5-2.27,1.22-.61,2.52-1.03,3.87-1.24.12-.02.23-.02.35,0,.12.02.23.07.32.14,1.03.54,1.98,1.23,2.82,2.04.49.75.72,1.64.66,2.54.08,2.04-.48,4.08-.25,6.18.8,7.41,6.69,13.18,12.83,16.8,7.67,4.54,23.57,4.79,28.21-4.21,1.54-3.06,3.81-13.47,3.81-13.47,0,0,.55-2.98,4.55-3.45l1.22-6.7Zm-71.97,14.87c-7.97,5.33-25.5,1.41-28.09-6.52-1.68-5.11-.53-11.01.97-16.04.28-1.24.75-2.42,1.41-3.51.4-.58.9-1.08,1.48-1.49,1.95-1.36,3.98-1.6,6.26-1.64,5.35-.18,10.69.66,15.73,2.49,3.42,1.3,11.45,3.48,11.67,8.16.19,6.34-4.16,15.04-9.42,18.55h-.02Zm57.24,9.37c-5.35,6.4-23.07,3.56-28.5-4.34-3.56-5.16-4.39-14.89-1.75-20.73,1.9-4.25,10.14-3.29,13.81-3.24,5.36.17,10.65,1.36,15.56,3.51,2.1.89,3.95,1.88,5.2,3.89.39.59.66,1.25.82,1.95.2,1.25.2,2.52,0,3.77-.54,5.16-1.67,11.05-5.13,15.18h-.02Z"/>
    <path class="cls-9" d="m63.51,198.82l-9.24,4.4c-.83.78-1.18,1.95-.9,3.05.55,2.25,4.22,1.72,5.73,1.02.61-.29,5.73-3.6,5.63-3.94l-1.22-4.53Z"/>
    <path class="cls-9" d="m155.87,216.6l7.54,6.93c.56.97.56,2.18,0,3.15-1.23,2.04-4.86.29-5.95-.91-.4-.43-4.22-4.95-4.08-5.23l2.49-3.93Z"/>
  </g>
  <g id="Clip">
    <path class="cls-8" d="m38.69,53.44l87.04-26.74c1.4-.43,2.87-.52,4.31-.26l-1.75-5.61c-1.44-4.52-6.25-7.04-10.79-5.63l-81.53,25.5c-4.54,1.42-7.08,6.25-5.66,10.79h0v.07l2.41,7.66c.94-2.78,3.16-4.93,5.96-5.79Z"/>
    <path class="cls-8" d="m130.8,28.9l-.77-2.45-1.75-5.61c-1.44-4.52-6.25-7.04-10.79-5.63l-81.53,25.5c-4.54,1.42-7.08,6.25-5.66,10.79h0v.07l2.41,7.66h0l.12.38,97.96-30.72Z"/>
    <path class="cls-10" d="m130.8,28.9l-.77-2.45c-1.44-.25-2.91-.16-4.31.26l-87.04,26.74c-2.79.85-5,2.99-5.94,5.75l.13.4,97.93-30.7Z"/>
    <path class="cls-10" d="m89.53,9.94c-17.24,4.19-29.07,12.97-29.07,23.14l33.21-10.41-2.04-7.72c-.44-1.77-1.14-3.45-2.09-5.01Z"/>
    <path class="cls-8" d="m74.49,1.19c-7.45-.14-14.24,4.25-17.19,11.1-3.17,7.44.9,13.79,3.16,20.82,0-10.19,11.84-18.98,29.07-23.17-3.19-5.3-8.86-8.6-15.05-8.75Zm-3.08,14.33c-2.69,0-4.86-2.18-4.86-4.86s2.18-4.86,4.86-4.86,4.86,2.18,4.86,4.86-2.18,4.86-4.86,4.86Z"/>
  </g>
</svg>