<?xml version="1.0" encoding="UTF-8"?>
<svg id="Layer_1" data-name="Layer 1" xmlns="http://www.w3.org/2000/svg" viewBox="0 0 217.5 442.5">
  <defs>
    <style>
      .cls-1 {
        font-family: ArialMT, Arial;
        font-size: 16.06px;
      }

      .cls-2 {
        fill: #e5ac38;
      }

      .cls-2, .cls-3 {
        stroke: #dee4f1;
        stroke-miterlimit: 10;
      }

      .cls-3 {
        fill: none;
        stroke-width: 2px;
      }
    </style>
  </defs>
  <line class="cls-3" x1="108.5" y1="26.28" x2="108.5" y2="434.5"/>
  <g>
    <rect class="cls-2" x=".5" y=".5" width="216" height="43" rx="9.25" ry="9.25"/>
    <text class="cls-1" transform="translate(60.74 26.28)"><tspan x="0" y="0">Appropriation</tspan></text>
  </g>
  <g>
    <rect class="cls-2" x=".5" y="80.2" width="216" height="43" rx="9.25" ry="9.25"/>
    <text class="cls-1" transform="translate(32.62 105.98)"><tspan x="0" y="0">Purchase Requisition</tspan></text>
  </g>
  <g>
    <rect class="cls-2" x=".5" y="159.9" width="216" height="43" rx="9.25" ry="9.25"/>
    <text class="cls-1" transform="translate(51.82 185.68)"><tspan x="0" y="0">Purchase Order</tspan></text>
  </g>
  <g>
    <rect class="cls-2" x=".5" y="239.6" width="216" height="43" rx="9.25" ry="9.25"/>
    <text class="cls-1" transform="translate(55.39 265.38)"><tspan x="0" y="0">Goods Receipt</tspan></text>
  </g>
  <g>
    <rect class="cls-2" x=".5" y="319.3" width="216" height="43" rx="9.25" ry="9.25"/>
    <text class="cls-1" transform="translate(83.06 345.08)"><tspan x="0" y="0">Invoice</tspan></text>
  </g>
  <g>
    <rect class="cls-2" x="1" y="399" width="216" height="43" rx="9.25" ry="9.25"/>
    <text class="cls-1" transform="translate(77.32 424.78)"><tspan x="0" y="0">Payment</tspan></text>
  </g>
</svg>