<?xml version="1.0" encoding="UTF-8"?>
<svg id="Layer_1" data-name="Layer 1" xmlns="http://www.w3.org/2000/svg" viewBox="0 0 311.63 310.11">
  <defs>
    <style>
      .cls-1 {
        fill: #87a54e;
      }
    </style>
  </defs>
  <path class="cls-1" d="m310.58,1.57c-1.44-1.7-3.92-2.07-5.79-.85-40.63,26.4-76.03,58.38-104.88,88.77H29.36c-16.19,0-29.36,13.17-29.36,29.36v161.91c0,16.19,13.17,29.35,29.36,29.35h170.67c16.19,0,29.35-13.17,29.35-29.35V118.85c0-3.84-.76-7.5-2.11-10.86,42.64-56.32,82.43-99.74,83.19-100.57,1.51-1.64,1.56-4.14.13-5.85Zm-96.16,279.19c0,7.94-6.46,14.4-14.4,14.4H29.36c-7.94,0-14.4-6.46-14.4-14.4V118.85c0-7.94,6.46-14.4,14.4-14.4h156.76c-44.46,49.53-70.02,91.33-70.45,92.04-.83,1.37-2.37,2.22-4.03,2.22-.8,0-1.57-.2-2.25-.59l-56.86-32.49c-2.24-1.28-3.91-1.84-5.43-1.84s-2.89.6-3.83,1.65l-.61-.35.44.56c-.24.29-.45.6-.62.95-1.61,3.34,1.08,6.72,2.23,8.16l78.49,98.47c.85,1.06,2.13,1.66,3.46,1.66.26,0,.53-.02.79-.07,1.6-.3,2.91-1.45,3.41-3,14.42-44.78,48.73-98.94,83.55-146.55v155.52Z"/>
</svg>