<?xml version="1.0" encoding="UTF-8"?>
<svg id="Layer_1" xmlns="http://www.w3.org/2000/svg" viewBox="0 0 396.57 396.57">
  <defs>
    <style>
      .cls-1 {
        fill: #fff;
      }

      .cls-1, .cls-2 {
        fill-rule: evenodd;
      }

      .cls-2 {
        fill: #708667;
      }
    </style>
  </defs>
  <path class="cls-2" d="M198.28,0c109.51,0,198.28,88.77,198.28,198.28s-88.77,198.28-198.28,198.28S0,307.79,0,198.28,88.77,0,198.28,0"/>
  <path class="cls-1" d="M282.67,110.82c10.59-10.58,27.91-10.59,38.5,0h0c10.59,10.59,10.59,27.91,0,38.5-40.02,40.02-79.94,80.06-119.91,120.16-31.06,31.58-42.97,32.97-76.99,0l-48.86-48.86c-10.59-10.59-10.59-27.91,0-38.49h0c10.59-10.59,27.91-10.59,38.5,0l48.86,48.86c39.98-40.1,79.9-80.15,119.91-120.16"/>
</svg>