<?xml version="1.0" encoding="UTF-8" standalone="no"?>
<svg width="100%" height="100%" viewBox="0 0 398 398" version="1.1" xmlns="http://www.w3.org/2000/svg" xmlns:xlink="http://www.w3.org/1999/xlink" xml:space="preserve" xmlns:serif="http://www.serif.com/" style="fill-rule:evenodd;clip-rule:evenodd;stroke-miterlimit:10;">
    <g transform="matrix(0.998487,0,0,0.998487,-35.1952,-38.1906)">
        <g transform="matrix(1.15459,0,0,1.15459,-5.60371,-6.06747)">
            <path d="M207.52,52.28L207.52,368.76C294.91,368.76 365.76,297.91 365.76,210.52C365.76,123.13 294.91,52.28 207.52,52.28Z" style="fill:rgb(86,86,86);fill-rule:nonzero;"/>
        </g>
        <g transform="matrix(1.15459,0,0,1.15459,-5.60371,-6.06747)">
            <path d="M49.28,210.52C49.28,297.91 120.13,368.76 207.52,368.76L207.52,52.28C120.13,52.28 49.29,123.11 49.28,210.5L49.28,210.52Z" style="fill:rgb(73,73,73);fill-rule:nonzero;"/>
        </g>
        <g transform="matrix(1.15459,0,0,1.15459,-5.60371,-6.06747)">
            <circle cx="208" cy="211" r="171.75" style="fill:none;stroke:rgb(77,77,77);stroke-width:1px;"/>
        </g>
        <g transform="matrix(1.15459,0,0,1.15459,-5.60371,-6.06747)">
            <path d="M130.68,238.42C134.75,241.33 139.16,243.74 143.81,245.6L140.81,252.72C134.8,250.46 129.19,247.25 124.19,243.22C118.38,246.44 111.83,248.1 105.19,248.02C98.51,248.09 91.95,246.34 86.19,242.96C80.5,239.61 75.91,234.65 73,228.72C69.85,222.29 68.27,215.21 68.38,208.05C68.28,200.84 69.86,193.71 73,187.22C75.85,181.23 80.46,176.24 86.21,172.93C92.06,169.61 98.69,167.91 105.42,168C112.2,167.91 118.87,169.67 124.72,173.09C130.4,176.44 134.96,181.39 137.83,187.33C140.91,193.77 142.45,200.84 142.33,207.98C142.42,213.83 141.44,219.65 139.43,225.14C137.54,230.16 134.55,234.7 130.68,238.42ZM108.16,225.35C113.51,226.71 118.5,229.23 122.77,232.73C128.77,227.25 131.77,219.01 131.77,208C131.89,202.37 130.8,196.78 128.58,191.6C126.62,187.12 123.37,183.33 119.24,180.71C108.71,174.32 95.18,175.95 86.47,184.66C81.44,189.88 78.92,197.68 78.93,208.05C78.93,218.1 81.42,225.81 86.39,231.2C91.36,236.59 97.72,239.28 105.45,239.27C109,239.29 112.52,238.59 115.79,237.21C112.68,235.18 109.26,233.68 105.66,232.78L108.16,225.35Z" style="fill:rgb(240,240,240);fill-rule:nonzero;"/>
        </g>
        <g transform="matrix(1.15459,0,0,1.15459,-5.60371,-6.06747)">
            <path d="M229.08,237.58C226.23,240.85 222.75,243.51 218.85,245.41C215.1,247.17 210.99,248.06 206.85,248.02C198.94,248.02 192.66,245.35 188.03,240.02C184.4,236.02 182.39,230.81 182.38,225.41C182.35,220.67 183.98,216.07 187,212.41C190.07,208.56 194.66,205.18 200.79,202.26C197.31,198.26 194.98,195.01 193.79,192.51C192.69,190.26 192.09,187.79 192.05,185.28C192.05,180.65 194.03,176.24 197.5,173.18C201.22,169.72 206.16,167.87 211.24,168.04C216.51,168.04 220.83,169.66 224.19,172.89C227.43,175.89 229.25,180.12 229.19,184.54C229.19,191.87 224.32,198.15 214.59,203.37L228.46,221.04C230.15,217.63 231.39,214.01 232.15,210.28L242.01,212.39C240.68,218.29 238.36,223.92 235.15,229.05C238.57,233.64 242.67,237.67 247.33,241L241,248.5C236.51,245.46 232.5,241.78 229.08,237.58ZM223.08,230.09L205.68,208.52C200.56,211.58 197.11,214.41 195.33,217C193.66,219.26 192.72,221.97 192.64,224.78C192.64,227.91 193.89,231.16 196.39,234.54C198.85,237.9 202.83,239.8 206.99,239.6C210.12,239.52 213.17,238.59 215.82,236.93C218.76,235.26 221.27,232.92 223.12,230.09L223.08,230.09ZM209.74,197.29C213.86,194.87 216.53,192.74 217.74,190.91C218.94,189.12 219.57,187.01 219.56,184.85C219.65,182.44 218.75,180.11 217.06,178.39C215.41,176.73 213.15,175.82 210.81,175.88C208.43,175.81 206.11,176.7 204.4,178.36C202.73,179.93 201.8,182.13 201.84,184.42C201.87,185.73 202.18,187.02 202.76,188.2C203.51,189.71 204.44,191.11 205.53,192.39L209.74,197.29Z" style="fill:rgb(240,240,240);fill-rule:nonzero;"/>
        </g>
        <g transform="matrix(1.15459,0,0,1.15459,-5.60371,-6.06747)">
            <path d="M273.7,246.7L303.39,169.4L314.39,169.4L346.03,246.7L334.39,246.7L325.39,223.29L293.05,223.29L284.56,246.7L273.7,246.7ZM296,215L322.21,215L314.14,193.59C311.68,187.08 309.85,181.74 308.66,177.59C307.66,182.61 306.26,187.55 304.49,192.35L296,215Z" style="fill:rgb(240,240,240);fill-rule:nonzero;"/>
        </g>
    </g>
</svg>
