<?xml version="1.0" encoding="UTF-8"?>
<svg id="Layer_1" xmlns="http://www.w3.org/2000/svg" viewBox="0 0 216.9 324.9">
  <defs>
    <style>
      .cls-1 {
        fill: #5db266;
      }

      .cls-2 {
        fill: #bebcb3;
      }

      .cls-3 {
        fill: #f9bd68;
      }

      .cls-4 {
        fill: #f4f1df;
      }

      .cls-5 {
        fill: #f3af58;
      }
    </style>
  </defs>
  <path class="cls-5" d="M108.45,0v324.9s108.4-156.6,108.4-216.4S168.35,0,108.45,0Z"/>
  <path class="cls-3" d="M.05,108.4c0,59.9,108.4,216.4,108.4,216.4V0C48.55,0,.05,48.5.05,108.4Z"/>
  <circle class="cls-2" cx="112.45" cy="111" r="85"/>
  <circle class="cls-4" cx="108.45" cy="106" r="85"/>
  <path class="cls-1" d="M101.65,135c0-1.8-.1-3.2-.1-4.1-.1-4.7.7-9.4,2.3-13.8,1.3-3.2,3.1-6.2,5.4-8.8,3-3.4,6.3-6.5,9.8-9.5,4.7-4.1,7.8-7.5,9.2-9.9,1.4-2.5,2.1-5.2,2.1-8.1,0-5.3-2.3-10.3-6.2-13.9-4-4-9.5-6.1-15.2-6-5.4-.2-10.6,1.8-14.5,5.4-3.9,3.6-6.4,9.3-7.6,17l-14-1.7c1.3-10.3,5-18.2,11.2-23.7,6.2-5.5,14.4-8.2,24.6-8.2,10.8,0,19.5,2.9,25.9,8.8,6.4,5.9,9.7,13,9.7,21.4,0,4.7-1.1,9.3-3.4,13.4-2.3,4.1-6.7,9-13.3,14.9-4.4,3.9-7.3,6.8-8.7,8.7-1.4,1.9-2.4,4.1-3,6.4-.7,2.4-1,6.3-1.1,11.8l-13.1-.1ZM100.75,162.2v-15.4h15.5v15.5l-15.5-.1Z"/>
</svg>