<?xml version="1.0" encoding="UTF-8"?>
<svg id="Layer_1" data-name="Layer 1" xmlns="http://www.w3.org/2000/svg" viewBox="0 0 476.62 422.27">
  <defs>
    <style>
      .cls-1 {
        fill: #e7a60d;
      }

      .cls-2 {
        fill: #e7ebf3;
      }

      .cls-3 {
        fill: #fff;
      }

      .cls-4 {
        fill: #c0c2c4;
      }

      .cls-5 {
        fill: #d5dbdd;
      }

      .cls-6 {
        fill: #dee4f1;
      }

      .cls-7 {
        fill: #3a4b6f;
      }

      .cls-8 {
        fill: none;
        stroke: #e7a60d;
        stroke-dasharray: 0 0 10 10;
        stroke-miterlimit: 10;
        stroke-width: 2px;
      }
    </style>
  </defs>
  <ellipse class="cls-6" cx="240.47" cy="13" rx="110" ry="13"/>
  <path class="cls-6" d="m351.22,50.5c0,7.18-49.7,13-111,13s-111-5.82-111-13v-31c0,7.18,49.7,13,111,13s111-5.82,111-13v31Z"/>
  <path class="cls-6" d="m351.22,88.5c0,7.18-49.7,13-111,13s-111-5.82-111-13v-31c0,7.18,49.7,13,111,13s111-5.82,111-13v31Z"/>
  <path class="cls-6" d="m351.22,126.5c0,7.18-49.7,13-111,13s-111-5.82-111-13v-31c0,7.18,49.7,13,111,13s111-5.82,111-13v31Z"/>
  <g>
    <polyline class="cls-8" points="108.54 78.5 47.57 78.5 47.57 324.2 108.54 324.2"/>
    <path class="cls-1" d="m108.25,72.86c3.11,0,5.64,2.53,5.64,5.64s-2.53,5.64-5.64,5.64-5.64-2.53-5.64-5.64,2.53-5.64,5.64-5.64Z"/>
    <path class="cls-1" d="m108.25,329.84c3.11,0,5.64-2.53,5.64-5.64s-2.53-5.64-5.64-5.64-5.64,2.53-5.64,5.64,2.53,5.64,5.64,5.64Z"/>
  </g>
  <g>
    <rect class="cls-5" x=".51" y="289.27" width="323.07" height="126.89"/>
    <rect class="cls-4" y="414.5" width="323.52" height="7.77"/>
    <rect class="cls-3" x="9.3" y="299.46" width="18.66" height="9.62" rx="1.78" ry="1.78"/>
    <rect class="cls-3" x="9.3" y="312.39" width="19.43" height="13.82" rx="1.78" ry="1.78"/>
    <rect class="cls-3" x="30.45" y="312.39" width="19.43" height="13.82" rx="1.78" ry="1.78"/>
    <rect class="cls-3" x="51.59" y="312.39" width="19.43" height="13.82" rx="1.78" ry="1.78"/>
    <rect class="cls-3" x="72.74" y="312.39" width="19.43" height="13.82" rx="1.78" ry="1.78"/>
    <rect class="cls-3" x="93.95" y="312.39" width="19.43" height="13.82" rx="1.78" ry="1.78"/>
    <rect class="cls-3" x="115.1" y="312.39" width="19.43" height="13.82" rx="1.78" ry="1.78"/>
    <rect class="cls-3" x="136.25" y="312.39" width="19.43" height="13.82" rx="1.78" ry="1.78"/>
    <rect class="cls-3" x="157.4" y="312.39" width="19.43" height="13.82" rx="1.78" ry="1.78"/>
    <rect class="cls-3" x="178.54" y="312.39" width="19.43" height="13.82" rx="1.78" ry="1.78"/>
    <rect class="cls-3" x="199.69" y="312.39" width="19.43" height="13.82" rx="1.78" ry="1.78"/>
    <rect class="cls-3" x="220.9" y="312.39" width="19.43" height="13.82" rx="1.78" ry="1.78"/>
    <rect class="cls-3" x="242.05" y="312.39" width="19.43" height="13.82" rx="1.78" ry="1.78"/>
    <rect class="cls-3" x="263.2" y="312.39" width="19.43" height="13.82" rx="1.78" ry="1.78"/>
    <rect class="cls-3" x="284.98" y="312.39" width="28.47" height="13.82" rx="1.78" ry="1.78"/>
    <rect class="cls-3" x="8.98" y="349.97" width="32.49" height="13.82" rx="1.78" ry="1.78"/>
    <rect class="cls-3" x="280.71" y="349.97" width="32.49" height="13.82" rx="1.78" ry="1.78"/>
    <rect class="cls-3" x="45.29" y="349.97" width="18.15" height="13.82" rx="1.78" ry="1.78"/>
    <rect class="cls-3" x="66.56" y="349.97" width="18.15" height="13.82" rx="1.78" ry="1.78"/>
    <rect class="cls-3" x="87.77" y="349.97" width="18.15" height="13.82" rx="1.78" ry="1.78"/>
    <rect class="cls-3" x="109.05" y="349.97" width="18.15" height="13.82" rx="1.78" ry="1.78"/>
    <rect class="cls-3" x="130.32" y="349.97" width="18.15" height="13.82" rx="1.78" ry="1.78"/>
    <rect class="cls-3" x="151.6" y="349.97" width="18.15" height="13.82" rx="1.78" ry="1.78"/>
    <rect class="cls-3" x="172.87" y="349.97" width="18.15" height="13.82" rx="1.78" ry="1.78"/>
    <rect class="cls-3" x="194.15" y="349.97" width="18.15" height="13.82" rx="1.78" ry="1.78"/>
    <rect class="cls-3" x="215.42" y="349.97" width="18.15" height="13.82" rx="1.78" ry="1.78"/>
    <rect class="cls-3" x="236.7" y="349.97" width="18.15" height="13.82" rx="1.78" ry="1.78"/>
    <rect class="cls-3" x="8.98" y="368.06" width="41.85" height="14.52" rx="1.78" ry="1.78"/>
    <rect class="cls-3" x="271.35" y="368.06" width="41.85" height="14.52" rx="1.78" ry="1.78"/>
    <rect class="cls-3" x="54.59" y="368.06" width="18.15" height="14.52" rx="1.78" ry="1.78"/>
    <rect class="cls-3" x="75.86" y="368.06" width="18.15" height="14.52" rx="1.78" ry="1.78"/>
    <rect class="cls-3" x="97.14" y="368.06" width="18.15" height="14.52" rx="1.78" ry="1.78"/>
    <rect class="cls-3" x="118.41" y="368.06" width="18.15" height="14.52" rx="1.78" ry="1.78"/>
    <rect class="cls-3" x="139.69" y="368.06" width="18.15" height="14.52" rx="1.78" ry="1.78"/>
    <rect class="cls-3" x="160.96" y="368.06" width="18.15" height="14.52" rx="1.78" ry="1.78"/>
    <rect class="cls-3" x="182.17" y="368.06" width="18.15" height="14.52" rx="1.78" ry="1.78"/>
    <rect class="cls-3" x="203.45" y="368.06" width="18.15" height="14.52" rx="1.78" ry="1.78"/>
    <rect class="cls-3" x="224.72" y="368.06" width="18.15" height="14.52" rx="1.78" ry="1.78"/>
    <rect class="cls-3" x="246" y="368.06" width="18.15" height="14.52" rx="1.78" ry="1.78"/>
    <rect class="cls-3" x="257.97" y="349.97" width="18.15" height="13.82" rx="1.78" ry="1.78"/>
    <rect class="cls-3" x="293.71" y="331.18" width="19.43" height="13.82" rx="1.78" ry="1.78"/>
    <rect class="cls-3" x="272.56" y="331.18" width="19.43" height="13.82" rx="1.78" ry="1.78"/>
    <rect class="cls-3" x="251.41" y="331.18" width="19.43" height="13.82" rx="1.78" ry="1.78"/>
    <rect class="cls-3" x="230.27" y="331.18" width="19.43" height="13.82" rx="1.78" ry="1.78"/>
    <rect class="cls-3" x="209.12" y="331.18" width="19.43" height="13.82" rx="1.78" ry="1.78"/>
    <rect class="cls-3" x="187.97" y="331.18" width="19.43" height="13.82" rx="1.78" ry="1.78"/>
    <rect class="cls-3" x="166.76" y="331.18" width="19.43" height="13.82" rx="1.78" ry="1.78"/>
    <rect class="cls-3" x="145.61" y="331.18" width="19.43" height="13.82" rx="1.78" ry="1.78"/>
    <rect class="cls-3" x="124.46" y="331.18" width="19.43" height="13.82" rx="1.78" ry="1.78"/>
    <rect class="cls-3" x="103.32" y="331.18" width="19.43" height="13.82" rx="1.78" ry="1.78"/>
    <rect class="cls-3" x="82.17" y="331.18" width="19.43" height="13.82" rx="1.78" ry="1.78"/>
    <rect class="cls-3" x="61.02" y="331.18" width="19.43" height="13.82" rx="1.78" ry="1.78"/>
    <rect class="cls-3" x="39.81" y="331.18" width="19.43" height="13.82" rx="1.78" ry="1.78"/>
    <rect class="cls-3" x="8.98" y="331.18" width="28.47" height="13.82" rx="1.78" ry="1.78"/>
    <rect class="cls-3" x="31.28" y="299.46" width="18.66" height="9.62" rx="1.78" ry="1.78"/>
    <rect class="cls-3" x="53.19" y="299.46" width="18.66" height="9.62" rx="1.78" ry="1.78"/>
    <rect class="cls-3" x="75.16" y="299.46" width="18.66" height="9.62" rx="1.78" ry="1.78"/>
    <rect class="cls-3" x="97.14" y="299.46" width="18.66" height="9.62" rx="1.78" ry="1.78"/>
    <rect class="cls-3" x="119.11" y="299.46" width="18.66" height="9.62" rx="1.78" ry="1.78"/>
    <rect class="cls-3" x="141.09" y="299.46" width="18.66" height="9.62" rx="1.78" ry="1.78"/>
    <rect class="cls-3" x="163.07" y="299.46" width="18.66" height="9.62" rx="1.78" ry="1.78"/>
    <rect class="cls-3" x="184.98" y="299.46" width="18.66" height="9.62" rx="1.78" ry="1.78"/>
    <rect class="cls-3" x="206.95" y="299.46" width="18.66" height="9.62" rx="1.78" ry="1.78"/>
    <rect class="cls-3" x="228.93" y="299.46" width="18.66" height="9.62" rx="1.78" ry="1.78"/>
    <rect class="cls-3" x="250.9" y="299.46" width="18.66" height="9.62" rx="1.78" ry="1.78"/>
    <rect class="cls-3" x="272.88" y="299.46" width="18.66" height="9.62" rx="1.78" ry="1.78"/>
    <rect class="cls-3" x="294.79" y="299.46" width="18.66" height="9.62" rx="1.78" ry="1.78"/>
    <rect class="cls-3" x="8.98" y="387.81" width="24.46" height="18.15" rx="2.23" ry="2.23"/>
    <rect class="cls-3" x="37.45" y="387.81" width="23.25" height="18.15" rx="2.23" ry="2.23"/>
    <rect class="cls-3" x="204.79" y="387.81" width="18.22" height="18.15" rx="2.23" ry="2.23"/>
    <rect class="cls-3" x="226.51" y="387.81" width="23.5" height="18.15" rx="2.23" ry="2.23"/>
    <rect class="cls-3" x="274.73" y="385.96" width="19.17" height="9.05" rx="2.23" ry="2.23"/>
    <rect class="cls-3" x="274.73" y="396.85" width="19.17" height="9.05" rx="2.23" ry="2.23"/>
    <rect class="cls-3" x="295.87" y="396.85" width="19.17" height="9.05" rx="2.23" ry="2.23"/>
    <rect class="cls-3" x="253.64" y="396.85" width="19.17" height="9.05" rx="2.23" ry="2.23"/>
    <rect class="cls-3" x="65.29" y="387.81" width="135.68" height="18.15" rx="2.23" ry="2.23"/>
  </g>
  <circle class="cls-7" cx="404.4" cy="173.53" r="72.22"/>
  <g>
    <rect class="cls-2" x="378.41" y="189.16" width="33.61" height="1.31" transform="translate(48.67 458.38) rotate(-63.43)"/>
    <path class="cls-2" d="m430.96,172.03h-23.48c-.36-1.97-2.09-3.47-4.17-3.47-.99,0-1.9.36-2.62.93l-28.06-13.49-.82,1.7,27.67,13.3c-.26.55-.41,1.16-.41,1.8,0,2.35,1.9,4.25,4.24,4.25,1.48,0,2.78-.75,3.54-1.9h24.12v-3.12Z"/>
    <g>
      <g>
        <rect class="cls-1" x="403.67" y="112.52" width="2.21" height="17.11"/>
        <rect class="cls-1" x="403.67" y="215.98" width="2.21" height="19.89"/>
      </g>
      <g>
        <rect class="cls-1" x="343.1" y="173.09" width="18.68" height="2.21"/>
        <rect class="cls-1" x="448.99" y="173.09" width="17.46" height="2.21"/>
      </g>
      <g>
        <rect class="cls-1" x="355.22" y="141.73" width="2.21" height="13.78" transform="translate(58.53 394.32) rotate(-62.17)"/>
        <rect class="cls-1" x="452.11" y="192.89" width="2.21" height="13.78" transform="translate(64.93 507.27) rotate(-62.16)"/>
      </g>
      <g>
        <rect class="cls-1" x="374.33" y="121.04" width="2.21" height="13.78" transform="translate(-10.15 220.91) rotate(-32.37)"/>
        <rect class="cls-1" x="433.01" y="213.57" width="2.21" height="13.78" transform="translate(-50.57 266.77) rotate(-32.38)"/>
      </g>
      <g>
        <rect class="cls-1" x="370.22" y="220.38" width="13.78" height="2.21" transform="translate(-4.74 434.7) rotate(-59.6)"/>
        <rect class="cls-1" x="425.54" y="125.81" width="13.78" height="2.21" transform="translate(104.47 436.02) rotate(-59.66)"/>
      </g>
      <g>
        <rect class="cls-1" x="350.6" y="200.77" width="13.78" height="2.21" transform="translate(-53.02 207.96) rotate(-30.3)"/>
        <rect class="cls-1" x="445.16" y="145.41" width="13.78" height="2.21" transform="translate(-12.12 248.33) rotate(-30.33)"/>
      </g>
    </g>
    <path class="cls-1" d="m466.26,133.12l-2.77-14.47-3.26,3.3c-14.37-15.23-34.51-23.97-55.46-23.97-42.03,0-76.22,34.19-76.22,76.22,0,35.79,24.33,66.34,59.17,74.3l1.31-5.74c-32.14-7.35-54.59-35.54-54.59-68.56,0-38.78,31.55-70.33,70.33-70.33,19.41,0,38.06,8.12,51.32,22.27l-3.85,3.9,14.02,3.08Z"/>
  </g>
</svg>