<?xml version="1.0" encoding="UTF-8"?>
<svg id="Layer_1" xmlns="http://www.w3.org/2000/svg" viewBox="0 0 396.57 396.57">
  <defs>
    <style>
      .cls-1 {
        fill: #fff;
      }

      .cls-1, .cls-2 {
        fill-rule: evenodd;
      }

      .cls-2 {
        fill: #a33833;
      }
    </style>
  </defs>
  <path class="cls-2" d="M198.28,0c109.51,0,198.28,88.77,198.28,198.28s-88.77,198.28-198.28,198.28S0,307.79,0,198.28,88.77,0,198.28,0"/>
  <path class="cls-1" d="M110.68,110.69h0c10.26-10.26,27.04-10.26,37.3,0l50.3,50.3,50.3-50.3c10.26-10.26,27.04-10.26,37.3,0h0c10.26,10.26,10.26,27.04,0,37.3l-50.3,50.31,50.3,50.3c10.26,10.26,10.26,27.04,0,37.3h0c-10.26,10.26-27.04,10.26-37.29,0l-50.3-50.3-50.3,50.3c-10.26,10.26-27.04,10.26-37.29,0h0c-10.26-10.26-10.26-27.04,0-37.3l50.3-50.3-50.31-50.31c-10.26-10.26-10.26-27.04,0-37.29"/>
</svg>