<?xml version="1.0" encoding="UTF-8"?>
<svg id="Layer_1" xmlns="http://www.w3.org/2000/svg" viewBox="0 0 344.5 344.5">
  <defs>
    <style>
      .cls-1 {
        fill: none;
        stroke: #4d4d4d;
        stroke-miterlimit: 10;
      }

      .cls-2 {
        fill: #565656;
      }

      .cls-3 {
        fill: #f2f2f2;
      }

      .cls-4 {
        fill: #494949;
      }
    </style>
  </defs>
  <path class="cls-2" d="M171.77,13.53v316.48c87.39,0,158.24-70.85,158.24-158.24S259.16,13.53,171.77,13.53h0Z"/>
  <path class="cls-4" d="M13.53,171.77c0,87.39,70.85,158.24,158.24,158.24h0V13.53c-87.39,0-158.23,70.83-158.24,158.22,0,0,0,.01,0,.02Z"/>
  <circle class="cls-1" cx="172.25" cy="172.25" r="171.75"/>
  <path class="cls-3" d="M94.93,199.67c4.07,2.91,8.48,5.32,13.13,7.18l-3,7.12c-6.01-2.26-11.62-5.47-16.62-9.5-5.81,3.22-12.36,4.88-19,4.8-6.68.07-13.24-1.68-19-5.06-5.69-3.35-10.28-8.31-13.19-14.24-3.15-6.43-4.73-13.51-4.62-20.67-.1-7.21,1.48-14.34,4.62-20.83,2.85-5.99,7.46-10.98,13.21-14.29,5.85-3.32,12.48-5.02,19.21-4.93,6.78-.09,13.45,1.67,19.3,5.09,5.68,3.35,10.24,8.3,13.11,14.24,3.08,6.44,4.62,13.51,4.5,20.65.09,5.85-.89,11.67-2.9,17.16-1.89,5.02-4.88,9.56-8.75,13.28ZM72.41,186.6c5.35,1.36,10.34,3.88,14.61,7.38,6-5.48,9-13.72,9-24.73.12-5.63-.97-11.22-3.19-16.4-1.96-4.48-5.21-8.27-9.34-10.89-10.53-6.39-24.06-4.76-32.77,3.95-5.03,5.22-7.55,13.02-7.54,23.39,0,10.05,2.49,17.76,7.46,23.15s11.33,8.08,19.06,8.07c3.55.02,7.07-.68,10.34-2.06-3.11-2.03-6.53-3.53-10.13-4.43l2.5-7.43Z"/>
  <path class="cls-3" d="M193.33,198.83c-2.85,3.27-6.33,5.93-10.23,7.83-3.75,1.76-7.86,2.65-12,2.61-7.91,0-14.19-2.67-18.82-8-3.63-4-5.64-9.21-5.65-14.61-.03-4.74,1.6-9.34,4.62-13,3.07-3.85,7.66-7.23,13.79-10.15-3.48-4-5.81-7.25-7-9.75-1.1-2.25-1.7-4.72-1.74-7.23,0-4.63,1.98-9.04,5.45-12.1,3.72-3.46,8.66-5.31,13.74-5.14,5.27,0,9.59,1.62,12.95,4.85,3.24,3,5.06,7.23,5,11.65,0,7.33-4.87,13.61-14.6,18.83l13.87,17.67c1.69-3.41,2.93-7.03,3.69-10.76l9.86,2.11c-1.33,5.9-3.65,11.53-6.86,16.66,3.42,4.59,7.52,8.62,12.18,11.95l-6.33,7.5c-4.49-3.04-8.5-6.72-11.92-10.92ZM187.33,191.34l-17.4-21.57c-5.12,3.06-8.57,5.89-10.35,8.48-1.67,2.26-2.61,4.97-2.69,7.78,0,3.13,1.25,6.38,3.75,9.76,2.46,3.36,6.44,5.26,10.6,5.06,3.13-.08,6.18-1.01,8.83-2.67,2.94-1.67,5.45-4.01,7.3-6.84h-.04ZM173.99,158.54c4.12-2.42,6.79-4.55,8-6.38,1.2-1.79,1.83-3.9,1.82-6.06.09-2.41-.81-4.74-2.5-6.46-1.65-1.66-3.91-2.57-6.25-2.51-2.38-.07-4.7.82-6.41,2.48-1.67,1.57-2.6,3.77-2.56,6.06.03,1.31.34,2.6.92,3.78.75,1.51,1.68,2.91,2.77,4.19l4.21,4.9Z"/>
  <path class="cls-3" d="M237.95,207.95l29.69-77.3h11l31.64,77.3h-11.64l-9-23.41h-32.34l-8.49,23.41h-10.86ZM260.25,176.25h26.21l-8.07-21.41c-2.46-6.51-4.29-11.85-5.48-16-1,5.02-2.4,9.96-4.17,14.76l-8.49,22.65Z"/>
</svg>