<svg width="465" height="465" viewBox="0 0 465 465" fill="none" xmlns="http://www.w3.org/2000/svg">
<path d="M464.022 232.609C464.022 360.739 360.152 464.609 232.022 464.609C103.892 464.609 0.0219727 360.739 0.0219727 232.609C0.0219727 104.479 103.892 0.609375 232.022 0.609375C360.152 0.609375 464.022 104.479 464.022 232.609Z" fill="#91A0BE"/>
<path d="M232.022 232.609V464.609C103.892 464.609 0.0219727 360.739 0.0219727 232.609C0.0219727 104.479 103.892 0.609375 232.022 0.609375V232.609Z" fill="black" fill-opacity="0.15"/>
<path d="M397.956 273.38C398.325 274.397 398.51 275.229 398.51 275.876C398.556 276.477 398.395 276.939 398.025 277.263C397.655 277.586 397.031 277.794 396.153 277.887C395.321 277.979 394.188 278.025 392.755 278.025C391.322 278.025 390.167 277.979 389.289 277.887C388.457 277.84 387.809 277.748 387.347 277.609C386.931 277.424 386.608 277.193 386.376 276.916C386.192 276.639 386.007 276.292 385.822 275.876L378.125 254.035H340.823L333.473 275.599C333.334 276.015 333.15 276.384 332.918 276.708C332.687 276.985 332.341 277.24 331.878 277.471C331.462 277.656 330.838 277.794 330.006 277.887C329.221 277.979 328.181 278.025 326.886 278.025C325.546 278.025 324.436 277.956 323.558 277.817C322.726 277.725 322.125 277.517 321.755 277.193C321.432 276.87 321.27 276.408 321.27 275.807C321.316 275.16 321.524 274.327 321.894 273.311L351.986 189.969C352.171 189.46 352.402 189.044 352.679 188.721C353.003 188.397 353.442 188.143 353.997 187.958C354.597 187.773 355.337 187.658 356.215 187.611C357.14 187.519 358.295 187.473 359.682 187.473C361.161 187.473 362.386 187.519 363.357 187.611C364.328 187.658 365.113 187.773 365.714 187.958C366.315 188.143 366.778 188.42 367.101 188.79C367.425 189.114 367.679 189.53 367.864 190.038L397.956 273.38ZM359.335 199.814H359.266L343.804 244.536H375.005L359.335 199.814Z" fill="#0B1528"/>
<path d="M197.228 253.966C197.228 251.424 197.575 249.02 198.268 246.755C198.961 244.444 200.048 242.225 201.527 240.099C203.006 237.926 204.924 235.846 207.282 233.858C209.685 231.825 212.574 229.791 215.949 227.757C214.1 225.261 212.505 222.996 211.165 220.962C209.87 218.928 208.784 217.033 207.906 215.276C207.074 213.52 206.473 211.856 206.103 210.284C205.733 208.666 205.548 207.049 205.548 205.431C205.548 202.565 206.034 199.838 207.004 197.249C207.975 194.614 209.524 192.303 211.65 190.315C213.822 188.282 216.596 186.687 219.97 185.531C223.345 184.329 227.435 183.729 232.243 183.729C236.31 183.729 239.823 184.168 242.782 185.046C245.786 185.924 248.259 187.172 250.201 188.79C252.188 190.408 253.667 192.372 254.638 194.684C255.655 196.949 256.164 199.491 256.164 202.311C256.164 205.038 255.724 207.534 254.846 209.799C253.968 212.064 252.558 214.259 250.617 216.386C248.675 218.512 246.179 220.638 243.128 222.765C240.124 224.845 236.472 227.04 232.173 229.352C233.745 231.247 235.455 233.234 237.304 235.314C239.153 237.348 241.071 239.405 243.059 241.485C245.093 243.565 247.15 245.622 249.23 247.656C251.356 249.644 253.436 251.562 255.47 253.411C256.395 252.163 257.227 250.753 257.966 249.182C258.706 247.564 259.353 245.877 259.908 244.12C260.462 242.317 260.878 240.492 261.156 238.643C261.433 236.794 261.572 234.922 261.572 233.026V230.53C261.572 230.068 261.641 229.698 261.78 229.421C261.965 229.097 262.242 228.843 262.612 228.658C262.982 228.427 263.513 228.265 264.207 228.173C264.946 228.08 265.894 228.034 267.049 228.034C268.066 228.034 268.921 228.057 269.615 228.104C270.354 228.15 270.955 228.265 271.417 228.45C271.88 228.589 272.203 228.843 272.388 229.213C272.619 229.536 272.735 229.999 272.735 230.6V232.333C272.735 234.922 272.504 237.464 272.042 239.96C271.625 242.456 271.025 244.906 270.239 247.31C269.499 249.667 268.552 251.932 267.396 254.104C266.287 256.277 265.039 258.288 263.652 260.137C265.732 261.801 267.535 263.188 269.06 264.297C270.632 265.406 271.949 266.308 273.012 267.001C274.122 267.694 275.023 268.18 275.716 268.457C276.456 268.734 277.057 268.873 277.519 268.873C277.981 268.873 278.42 268.85 278.836 268.804C279.252 268.757 279.576 268.827 279.807 269.012C280.084 269.197 280.292 269.566 280.431 270.121C280.57 270.676 280.639 271.531 280.639 272.687C280.639 273.842 280.616 274.767 280.57 275.46C280.524 276.153 280.431 276.685 280.292 277.055C280.2 277.378 280.015 277.656 279.738 277.887C279.46 278.118 278.952 278.326 278.212 278.511C277.473 278.696 276.502 278.788 275.3 278.788C274.376 278.788 273.359 278.626 272.25 278.303C271.14 277.979 269.846 277.424 268.367 276.639C266.888 275.807 265.154 274.697 263.167 273.311C261.225 271.924 258.937 270.167 256.302 268.041C254.361 269.613 252.304 271.069 250.131 272.409C248.005 273.75 245.717 274.905 243.267 275.876C240.863 276.8 238.321 277.517 235.64 278.025C233.005 278.58 230.139 278.857 227.042 278.857C224.13 278.857 221.357 278.603 218.722 278.095C216.134 277.586 213.73 276.87 211.511 275.945C209.292 274.975 207.305 273.773 205.548 272.34C203.792 270.907 202.29 269.289 201.042 267.486C199.84 265.637 198.892 263.58 198.199 261.315C197.552 259.05 197.228 256.601 197.228 253.966ZM217.682 204.529C217.682 205.777 217.844 207.049 218.167 208.343C218.537 209.637 219.069 211.001 219.762 212.434C220.502 213.82 221.38 215.323 222.397 216.94C223.46 218.558 224.708 220.361 226.141 222.349C229.515 220.453 232.335 218.72 234.6 217.148C236.911 215.531 238.76 213.982 240.147 212.503C241.534 211.024 242.528 209.545 243.128 208.065C243.776 206.586 244.099 205.015 244.099 203.351C244.099 202.01 243.845 200.739 243.336 199.537C242.874 198.289 242.111 197.203 241.048 196.278C239.985 195.308 238.645 194.545 237.027 193.99C235.409 193.436 233.468 193.158 231.203 193.158C228.753 193.158 226.673 193.482 224.962 194.129C223.298 194.73 221.912 195.562 220.802 196.625C219.739 197.642 218.953 198.844 218.445 200.23C217.936 201.617 217.682 203.05 217.682 204.529ZM209.639 252.787C209.639 255.191 210.032 257.386 210.818 259.374C211.65 261.362 212.852 263.095 214.423 264.574C215.995 266.007 217.959 267.14 220.317 267.972C222.674 268.757 225.402 269.15 228.499 269.15C230.394 269.15 232.243 268.965 234.045 268.596C235.848 268.18 237.558 267.648 239.176 267.001C240.84 266.308 242.412 265.499 243.891 264.574C245.37 263.604 246.734 262.587 247.982 261.523C245.578 259.443 243.175 257.294 240.771 255.075C238.414 252.81 236.125 250.545 233.907 248.28C231.688 246.015 229.539 243.773 227.458 241.555C225.425 239.29 223.553 237.094 221.842 234.968C219.531 236.447 217.59 237.926 216.018 239.405C214.493 240.838 213.245 242.294 212.274 243.773C211.349 245.206 210.679 246.662 210.263 248.142C209.847 249.621 209.639 251.169 209.639 252.787Z" fill="#0B1528"/>
<path d="M160.133 285.514C160.133 286.577 160.064 287.455 159.925 288.148C159.833 288.888 159.671 289.443 159.44 289.812C159.209 290.229 158.955 290.506 158.677 290.645C158.4 290.783 158.123 290.853 157.845 290.853C156.921 290.853 155.418 290.46 153.338 289.674C151.305 288.934 148.947 287.825 146.266 286.346C143.585 284.913 140.719 283.156 137.668 281.076C134.618 278.996 131.659 276.569 128.793 273.796C126.528 275.183 123.663 276.384 120.196 277.401C116.729 278.418 112.708 278.927 108.131 278.927C101.383 278.927 95.5353 277.933 90.5894 275.945C85.6896 273.958 81.6219 271.046 78.3862 267.209C75.1968 263.372 72.8162 258.611 71.2446 252.926C69.673 247.194 68.8872 240.63 68.8872 233.234C68.8872 226.116 69.7424 219.691 71.4526 213.959C73.1629 208.181 75.7284 203.281 79.1489 199.26C82.5695 195.192 86.8452 192.072 91.9761 189.899C97.1069 187.681 103.093 186.571 109.934 186.571C116.359 186.571 121.999 187.565 126.852 189.553C131.752 191.54 135.843 194.452 139.125 198.289C142.453 202.079 144.949 206.771 146.613 212.364C148.277 217.957 149.109 224.382 149.109 231.64C149.109 235.384 148.878 238.966 148.416 242.387C148 245.807 147.306 249.043 146.335 252.094C145.411 255.145 144.232 257.964 142.799 260.553C141.366 263.141 139.679 265.476 137.738 267.556C141.112 270.329 144.07 272.502 146.613 274.073C149.155 275.599 151.258 276.754 152.922 277.54C154.586 278.326 155.881 278.881 156.805 279.204C157.73 279.574 158.423 279.967 158.885 280.383C159.347 280.845 159.671 281.469 159.856 282.255C160.041 283.087 160.133 284.173 160.133 285.514ZM136.559 232.472C136.559 227.387 136.097 222.672 135.172 218.327C134.294 213.982 132.792 210.215 130.666 207.025C128.585 203.79 125.789 201.271 122.276 199.468C118.763 197.665 114.418 196.764 109.241 196.764C104.064 196.764 99.7186 197.734 96.2056 199.676C92.6925 201.571 89.8267 204.16 87.6079 207.441C85.4354 210.677 83.8638 214.444 82.8931 218.743C81.9686 223.042 81.5063 227.595 81.5063 232.402C81.5063 237.672 81.9455 242.525 82.8237 246.963C83.702 251.354 85.1812 255.168 87.2612 258.403C89.3413 261.639 92.1147 264.158 95.5815 265.961C99.0946 267.717 103.486 268.596 108.755 268.596C113.979 268.596 118.37 267.625 121.929 265.684C125.488 263.742 128.354 261.131 130.527 257.849C132.699 254.521 134.248 250.684 135.172 246.339C136.097 241.948 136.559 237.325 136.559 232.472Z" fill="#0B1528"/>
</svg>
