<?xml version="1.0" encoding="UTF-8"?>
<svg id="Layer_1" xmlns="http://www.w3.org/2000/svg" viewBox="0 0 522.79 522.79">
  <defs>
    <style>
      .cls-1 {
        fill: #475641;
      }

      .cls-2 {
        fill: #e7a60d;
      }

      .cls-3 {
        fill: #91a0be;
      }

      .cls-4 {
        fill: #586272;
      }

      .cls-5 {
        fill: #f4bc3a;
      }

      .cls-6 {
        fill: #a06e0a;
      }

      .cls-7 {
        fill: #722525;
      }

      .cls-8 {
        fill: #a33833;
      }

      .cls-9 {
        fill: #aa7f29;
      }

      .cls-10 {
        fill: #657c5c;
      }
    </style>
  </defs>
  <g>
    <path class="cls-8" d="M256.25,235.71l.92-.84,39.93-36.1,128.93-116.53c-31.37-16.88-71.43-25.44-116.07-23.78-21,.78-43.01,3.82-65.63,9.33-41.16,10.03-79.41,27.02-112.44,48.58l120.5,115.61,3.86,3.72Z"/>
    <path class="cls-3" d="M157.62,158.13l-13.58-13.03-22.56-21.65c-49.9,35.24-86.39,81.06-100.4,128.23-4.92,16.57-7.08,33.3-6.06,49.83.96,15.79,4.76,30.39,11.01,43.64.15.32.32.64.47.96.02.05.05.09.07.14.56,1.15,1.13,2.29,1.72,3.42.18.35.36.69.55,1.04.08.15.17.29.25.44.57,1.04,1.15,2.07,1.75,3.09.13.22.25.46.39.68.13.22.27.44.4.65.86,1.42,1.74,2.83,2.65,4.22.01.02.03.04.04.06.91,1.37,1.86,2.72,2.83,4.05.09.13.17.25.26.38.07.1.14.19.21.28.15.2.31.39.46.59.71.95,1.43,1.89,2.17,2.83.06.07.11.14.17.21.29.36.58.72.87,1.08,0,0,0,.01.01.02.81,1,1.64,1.98,2.49,2.95.08.09.15.18.23.27.17.19.32.38.49.57.02.03.05.05.07.08,1.11,1.26,2.25,2.5,3.42,3.71.25.26.51.52.76.78.03.03.07.06.1.1.91.93,1.83,1.85,2.77,2.76.27.25.53.52.8.77.14.14.29.27.44.4.88.83,1.78,1.65,2.7,2.46.18.16.35.32.52.48.22.2.45.39.67.59,1.3,1.13,2.62,2.24,3.97,3.32,0,0,.02.02.03.02,1.34,1.08,2.72,2.13,4.11,3.17.44.32.88.64,1.32.96,1.01.73,2.03,1.46,3.06,2.17.49.34.97.67,1.46,1,1.13.76,2.28,1.51,3.43,2.24.09.05.17.11.26.17.28.17.55.35.82.53,1.51.94,3.05,1.86,4.62,2.77.16.09.32.19.48.28.21.12.43.24.65.35,1.21.69,2.44,1.37,3.69,2.03.54.28,1.08.57,1.62.85,1.16.6,2.34,1.19,3.52,1.77.51.25,1.02.5,1.53.75,3.35,1.6,6.79,3.11,10.31,4.53.08.03.17.07.25.11.46.18.92.36,1.38.54,1.27.5,2.54.98,3.83,1.46.56.21,1.12.41,1.68.61.04.01.08.03.11.04,1.4.5,2.82.98,4.24,1.46.44.14.87.3,1.31.44,1.85.6,3.72,1.18,5.61,1.73.44.13.88.24,1.32.37,0,0,.02,0,.03,0,1.47.42,2.96.83,4.45,1.22.52.14,1.04.27,1.56.4.12.03.24.06.36.09,1.39.35,2.79.69,4.2,1.01.52.12,1.04.25,1.57.37.08.02.16.03.24.05,1.98.44,3.98.87,6,1.26l64.73-106.83,41.06-67.75,2.37-3.91-90.32-86.66Z"/>
    <path class="cls-5" d="M494.5,178.54c-.13-1.17-.27-2.33-.43-3.48-.06-.44-.12-.87-.18-1.31-.23-1.52-.47-3.04-.75-4.54-.03-.13-.05-.26-.08-.39-.26-1.38-.55-2.74-.86-4.1-.1-.44-.21-.88-.31-1.32-.27-1.11-.55-2.22-.84-3.31-.11-.39-.21-.79-.32-1.18-.41-1.44-.83-2.87-1.29-4.29-.06-.2-.14-.39-.2-.59-.4-1.23-.83-2.44-1.27-3.65-.16-.42-.32-.84-.47-1.26-.4-1.06-.82-2.1-1.25-3.14-10.03-24.18-27.98-44.12-51.78-58.85l-4.6,4.16-65.85,59.53-63.07,57-36.44,32.93,32.69,12.04,33.54,12.35,117.25,43.18c19.28-23.27,33.43-48.38,41.01-73.89,4.92-16.57,7.07-33.3,6.07-49.82-.1-1.59-.23-3.16-.38-4.72-.05-.46-.1-.91-.15-1.37Z"/>
    <path class="cls-10" d="M345.1,282.02l-8.6-3.17-48.44-17.83-8.83-3.25,6.03,5.78,30.24,29.02,73.07,70.11c13.11-9.26,25.26-19.26,36.36-29.81,5.4-5.14,10.56-10.39,15.43-15.77l-95.26-35.08Z"/>
    <path class="cls-2" d="M307.68,302.1l-16.32-15.65-4.69-4.5-8.02-7.7-2.54-2.43-5.59-5.36-2.13-2.05-3.85-3.69-8.96-8.6-2.37,3.9-.31.51-43.42,71.66-38.87,64.15-19.88,32.79c8.62,1.26,17.53,2.08,26.68,2.46,7.41.31,14.98.34,22.69.06,2.4-.09,4.81-.22,7.23-.37.24-.02.48-.02.72-.04,2.54-.16,5.1-.36,7.67-.59.89-.08,1.78-.18,2.67-.26,1.7-.17,3.4-.33,5.11-.53,1.06-.12,2.12-.26,3.18-.39,1.56-.19,3.12-.39,4.68-.6,1.13-.16,2.27-.33,3.4-.5,1.51-.22,3.02-.45,4.54-.7,1.17-.19,2.34-.39,3.51-.6,1.5-.26,3.01-.53,4.51-.81,1.18-.22,2.37-.45,3.56-.69,1.52-.3,3.03-.61,4.56-.94,1.18-.25,2.36-.51,3.55-.77,2.24-.5,4.48-1,6.73-1.55,2.5-.61,4.99-1.24,7.48-1.91.89-.24,1.77-.49,2.65-.73,1.59-.44,3.18-.87,4.76-1.32,1.04-.3,2.06-.62,3.09-.93,1.42-.42,2.84-.84,4.25-1.28,1.08-.33,2.16-.69,3.23-1.04,1.35-.44,2.71-.87,4.05-1.32,1.09-.37,2.17-.74,3.26-1.12,1.32-.45,2.64-.91,3.95-1.38,1.09-.39,2.16-.79,3.24-1.19,1.3-.48,2.6-.96,3.89-1.45,1.07-.41,2.13-.83,3.19-1.24,1.29-.51,2.58-1.02,3.87-1.54,1.04-.42,2.08-.85,3.11-1.28,1.24-.52,2.48-1.04,3.72-1.57,1.28-.55,2.56-1.11,3.83-1.68,1.14-.5,2.27-1,3.39-1.52,1.28-.58,2.54-1.17,3.8-1.76,1.11-.52,2.22-1.04,3.32-1.57,1.27-.61,2.52-1.23,3.78-1.86,1.08-.54,2.17-1.07,3.24-1.62,1.26-.64,2.51-1.29,3.75-1.95,1.06-.55,2.11-1.1,3.16-1.66,1.26-.68,2.51-1.37,3.76-2.06,1.01-.56,2.02-1.11,3.02-1.67,1.3-.73,2.58-1.48,3.87-2.23.93-.54,1.87-1.08,2.8-1.63,1.42-.84,2.81-1.7,4.21-2.55.78-.48,1.56-.94,2.33-1.42.86-.53,1.7-1.08,2.54-1.62,1.29-.82,2.59-1.63,3.87-2.47l-70.49-67.64Z"/>
  </g>
  <g>
    <polygon class="cls-7" points="426.03 82.25 297.1 198.78 257.17 234.88 256.25 235.71 252.39 231.99 131.89 116.38 144.04 145.1 157.62 158.13 247.94 244.78 252.34 255.18 253.21 256.02 255.58 252.12 264.54 260.72 268.39 264.41 270.52 266.46 276.11 271.82 277.21 270.84 264.48 240.76 300.92 207.82 363.99 150.82 429.85 91.29 426.03 82.25"/>
    <path class="cls-4" d="M252.34,255.18l-4.4-10.4-2.37,3.91-41.06,67.75-64.73,106.83c-1.86-.36-3.69-.75-5.52-1.15-.24-.05-.48-.11-.73-.16-.52-.12-1.04-.25-1.57-.37-1.05-.24-2.11-.49-3.15-.74-.47-.12-.94-.24-1.42-.36-.52-.13-1.04-.27-1.56-.4-.8-.21-1.59-.42-2.38-.64-.7-.19-1.39-.39-2.09-.59-.44-.13-.89-.24-1.33-.37-.62-.18-1.24-.37-1.86-.56-.37-.11-.75-.21-1.12-.33-.23-.07-.45-.15-.69-.23-.65-.2-1.31-.4-1.95-.61-.44-.14-.88-.3-1.31-.44-1.2-.4-2.4-.8-3.58-1.22-.26-.09-.52-.19-.78-.28-.56-.2-1.12-.41-1.68-.61-1.29-.47-2.56-.96-3.83-1.46-.46-.18-.92-.35-1.38-.54-.16-.06-.32-.13-.48-.19-2.18-.88-4.31-1.8-6.43-2.75-.43-.19-.86-.39-1.29-.59-.79-.36-1.59-.73-2.37-1.1-.51-.25-1.02-.5-1.53-.75-.78-.38-1.56-.76-2.34-1.15-.21-.11-.41-.22-.62-.32-.19-.1-.38-.2-.57-.3-.54-.28-1.08-.56-1.62-.85-1.18-.63-2.35-1.28-3.51-1.93-.27-.15-.55-.3-.82-.45-.16-.09-.32-.19-.48-.28-1.56-.9-3.1-1.82-4.62-2.77-.28-.17-.55-.35-.82-.53-.35-.22-.7-.45-1.05-.68-.89-.57-1.77-1.15-2.64-1.73-.49-.33-.98-.66-1.46-1-.48-.33-.97-.66-1.45-.99-.09-.06-.18-.13-.26-.19-.45-.32-.9-.66-1.35-.98-.44-.32-.89-.64-1.32-.96-.83-.62-1.65-1.25-2.47-1.89-.19-.15-.4-.29-.6-.45-.19-.15-.37-.31-.56-.46-.16-.13-.32-.25-.48-.38-.01,0-.02-.02-.03-.02-.3-.24-.58-.49-.88-.73-.63-.52-1.27-1.04-1.89-1.57-.4-.34-.8-.68-1.2-1.02-.22-.2-.45-.39-.67-.59-.44-.39-.88-.79-1.32-1.18-.45-.4-.89-.81-1.33-1.21-.34-.31-.68-.63-1.01-.94-.27-.26-.53-.52-.8-.77-.41-.39-.81-.78-1.21-1.17-.56-.56-1.11-1.12-1.66-1.68-.25-.26-.51-.52-.76-.78-.16-.17-.32-.34-.48-.51-.68-.72-1.34-1.44-2-2.17-.26-.29-.53-.58-.79-.87-.07-.08-.14-.16-.21-.24-.17-.19-.32-.38-.49-.57-.66-.76-1.32-1.52-1.96-2.29-.23-.28-.45-.56-.68-.84-.03-.04-.06-.07-.09-.11-.29-.36-.58-.72-.87-1.08-.31-.39-.62-.77-.92-1.16-.32-.41-.62-.83-.94-1.24-.31-.41-.63-.82-.93-1.23-.07-.09-.14-.19-.21-.28-.13-.17-.25-.35-.37-.52-.33-.46-.65-.92-.97-1.38-.46-.66-.92-1.31-1.36-1.98-.12-.19-.26-.37-.38-.55-.01-.02-.03-.04-.04-.06-.19-.28-.36-.57-.54-.85-.43-.66-.85-1.32-1.27-1.99-.28-.46-.57-.91-.85-1.38-.13-.22-.27-.43-.4-.65-.3-.5-.58-1.01-.87-1.51-.28-.49-.57-.99-.84-1.48-.22-.41-.45-.81-.67-1.22-.19-.34-.36-.69-.55-1.04-.24-.45-.48-.9-.71-1.35-.37-.73-.72-1.46-1.08-2.2-.15-.32-.32-.64-.47-.96-.08-.17-.16-.34-.24-.51-.58-1.23-1.13-2.48-1.66-3.74,5.52,13.04,11.03,26.08,16.55,39.11.53,1.26,1.09,2.51,1.67,3.74.19.4.39.79.58,1.19.4.83.8,1.66,1.22,2.48.24.47.49.93.74,1.4.39.74.78,1.48,1.19,2.2.27.49.55.97.82,1.45.41.7.81,1.4,1.23,2.1.29.48.58.96.88,1.43.43.69.86,1.37,1.3,2.05.31.47.61.94.93,1.4.46.68.93,1.36,1.4,2.03.31.44.62.89.94,1.32.51.71,1.04,1.41,1.57,2.11.3.39.58.78.88,1.17.65.84,1.31,1.66,1.98,2.48.2.24.39.49.59.73.88,1.06,1.77,2.09,2.68,3.12.23.26.48.52.72.78.68.76,1.38,1.51,2.08,2.26.35.37.72.74,1.08,1.1.61.62,1.22,1.25,1.84,1.86.4.4.81.79,1.22,1.18.59.57,1.19,1.14,1.8,1.71.43.4.87.8,1.31,1.2.6.55,1.21,1.09,1.83,1.62.45.39.9.78,1.36,1.17.63.53,1.26,1.06,1.9,1.58.46.37.92.76,1.39,1.13.18.15.37.29.55.43.2.16.41.32.61.47,1.68,1.31,3.38,2.59,5.13,3.84.09.06.17.13.26.19,1.81,1.28,3.67,2.52,5.55,3.73.38.24.75.49,1.13.73,1.86,1.17,3.75,2.32,5.68,3.42.33.19.66.37.99.56,1.86,1.05,3.76,2.08,5.69,3.07.21.11.41.22.62.33,2.04,1.04,4.13,2.04,6.24,3,.43.2.86.4,1.3.59,2.11.95,4.24,1.87,6.42,2.75.31.13.63.24.94.37,2.06.82,4.14,1.61,6.26,2.37.32.12.64.24.96.35,2.24.79,4.52,1.54,6.82,2.26.23.07.46.14.69.21.38.12.76.24,1.14.35,1.04.32,2.09.62,3.14.92.7.2,1.41.4,2.12.6,1.1.3,2.21.59,3.32.88.68.18,1.35.35,2.04.52,1.22.3,2.45.59,3.69.87.59.13,1.16.28,1.75.4,1.83.4,3.66.79,5.52,1.15l5.98-9.87-11.58-27.37,19.88-32.79,38.87-64.15,43.42-71.66-.57-1.35Z"/>
    <path class="cls-9" d="M502.48,184.35c-2.21-5.22-4.41-10.43-6.62-15.65-3.31-7.82-6.62-15.65-9.93-23.47.1.25.2.5.3.75.43,1.04.85,2.09,1.25,3.14.16.42.32.84.47,1.26.44,1.2.87,2.42,1.27,3.65.06.2.14.39.2.59.46,1.42.88,2.85,1.29,4.29.11.39.21.79.32,1.18.29,1.1.58,2.2.84,3.31.1.44.21.88.31,1.32.31,1.36.6,2.72.86,4.1.02.13.05.26.08.39.28,1.5.53,3.02.75,4.54.06.43.12.87.18,1.31.16,1.15.3,2.31.43,3.48.05.45.1.91.15,1.37.15,1.56.29,3.13.38,4.72,1.01,16.51-1.15,33.25-6.07,49.82-7.58,25.51-21.72,50.62-41.01,73.89l-117.25-43.18-33.54-12.35-32.69-12.04,12.72,30.08,1.45,3.42,8.02,7.7,3.3,1.22-7.31-17.27-3.44-8.13,8.83,3.25,48.44,17.83,8.6,3.17,95.26,35.08,10.75,25.41,13.39,4.93c19.28-23.27,33.43-48.38,41.01-73.89,4.92-16.57,7.07-33.3,6.07-49.82-.86-14.12-3.98-27.29-9.1-39.39Z"/>
    <path class="cls-1" d="M451.11,342.51l-10.75-25.41c-4.87,5.38-10.03,10.63-15.43,15.77-11.09,10.55-23.25,20.55-36.36,29.81l-73.07-70.11-30.24-29.02-6.03-5.78,3.44,8.13,7.31,17.27,1.39,3.28,16.32,15.65,70.49,67.64,4.41,10.42,22.55,21.64c19.49-13.76,36.92-29.14,51.79-45.58l-5.8-13.7Z"/>
    <path class="cls-6" d="M382.57,380.16l-4.41-10.42c-1.28.84-2.58,1.65-3.87,2.47-.85.54-1.69,1.08-2.54,1.62-.77.48-1.56.94-2.33,1.42-1.4.86-2.79,1.71-4.21,2.55-.93.55-1.87,1.08-2.8,1.63-1.29.75-2.57,1.5-3.87,2.23-1,.56-2.01,1.11-3.02,1.67-1.25.69-2.5,1.38-3.76,2.06-1.05.56-2.1,1.11-3.16,1.66-1.25.65-2.49,1.31-3.75,1.95-1.08.55-2.16,1.08-3.24,1.62-1.26.62-2.51,1.25-3.78,1.86-1.1.53-2.21,1.05-3.32,1.57-1.26.59-2.53,1.18-3.8,1.76-1.12.51-2.26,1.02-3.39,1.52-1.27.57-2.55,1.13-3.83,1.68-.5.21-.98.44-1.48.65-.74.31-1.49.61-2.24.92-1.03.43-2.07.86-3.11,1.28-1.29.52-2.58,1.03-3.87,1.54-1.06.42-2.12.84-3.19,1.24-1.29.49-2.59.98-3.89,1.45-1.08.4-2.16.8-3.24,1.19-1.31.47-2.63.92-3.95,1.38-1.08.37-2.17.75-3.26,1.12-1.34.45-2.7.88-4.05,1.32-1.08.35-2.15.7-3.23,1.04-1.41.44-2.83.86-4.25,1.28-1.03.31-2.06.63-3.09.93-1.58.46-3.17.89-4.76,1.32-.89.24-1.77.5-2.65.73-2.48.66-4.97,1.3-7.48,1.91-1.56.38-3.12.75-4.67,1.11-.69.16-1.37.29-2.06.45-1.19.26-2.37.52-3.55.77-1.52.32-3.04.63-4.56.94-1.19.24-2.37.47-3.56.69-1.51.28-3.01.55-4.51.81-1.17.2-2.35.41-3.51.6-1.52.25-3.03.47-4.54.7-1.14.17-2.27.34-3.4.5-1.57.21-3.13.41-4.68.6-1.06.13-2.12.27-3.18.39-1.71.2-3.41.36-5.11.53-.89.09-1.78.19-2.67.26-2.57.23-5.13.43-7.67.59-.24.02-.48.02-.72.04-2.2.14-4.39.25-6.57.34-.22,0-.44.02-.66.03-7.71.29-15.27.25-22.69-.06-9.14-.39-18.05-1.2-26.68-2.46l11.58,27.37,4.97,11.74c15.62,2.29,32.14,3.16,49.36,2.52.22,0,.44-.02.66-.03,2.31-.09,4.63-.2,6.97-.35.1,0,.2,0,.3-.01,2.56-.17,5.13-.36,7.72-.59.8-.07,1.61-.16,2.41-.24,1.79-.17,3.58-.35,5.38-.55,1-.11,2.01-.25,3.01-.37,1.61-.2,3.23-.4,4.85-.62,1.09-.15,2.19-.32,3.29-.48,1.55-.23,3.09-.46,4.65-.72,1.14-.19,2.29-.39,3.44-.59,1.52-.27,3.05-.54,4.58-.83,1.17-.22,2.34-.45,3.51-.68,1.53-.3,3.06-.62,4.59-.94,1.17-.25,2.35-.5,3.53-.77.68-.15,1.37-.32,2.05-.47,1.56-.35,3.12-.7,4.68-1.08,2.51-.61,5.01-1.25,7.49-1.91.82-.22,1.62-.45,2.44-.68,1.66-.45,3.33-.91,4.98-1.38.97-.28,1.94-.58,2.91-.87,1.48-.44,2.97-.88,4.44-1.34,1.03-.32,2.04-.66,3.06-.98,1.41-.46,2.82-.9,4.22-1.37,1.05-.35,2.08-.72,3.12-1.07,1.37-.47,2.73-.94,4.09-1.43,1.05-.37,2.08-.76,3.12-1.15,1.34-.49,2.68-.99,4.01-1.5,1.04-.4,2.07-.8,3.1-1.21,1.32-.52,2.64-1.04,3.95-1.57,1.02-.41,2.04-.84,3.05-1.26.75-.31,1.51-.64,2.26-.96.5-.21,1.01-.42,1.51-.64,1.26-.54,2.52-1.1,3.77-1.65,1.16-.51,2.31-1.03,3.46-1.55,1.25-.57,2.49-1.15,3.73-1.73,1.13-.53,2.27-1.06,3.4-1.61,1.24-.6,2.47-1.21,3.7-1.82,1.11-.55,2.22-1.09,3.31-1.65,1.24-.63,2.46-1.27,3.69-1.92,1.07-.56,2.14-1.11,3.21-1.68,1.25-.67,2.49-1.36,3.73-2.04,1.02-.56,2.04-1.12,3.05-1.69,1.29-.73,2.57-1.48,3.85-2.22.94-.54,1.89-1.08,2.82-1.64,1.41-.84,2.8-1.69,4.19-2.54.78-.48,1.58-.95,2.35-1.43,2.16-1.34,4.3-2.7,6.41-4.09l-12.14-28.7Z"/>
  </g>
</svg>