<?xml version="1.0" encoding="UTF-8"?>
<svg id="Layer_1" data-name="Layer 1" xmlns="http://www.w3.org/2000/svg" viewBox="0 0 345.84 278.9">
  <defs>
    <style>
      .cls-1 {
        fill: #ca3b38;
      }

      .cls-2 {
        fill: #5aa0d1;
      }

      .cls-3 {
        fill: #eeeeed;
      }

      .cls-4 {
        fill: #efa62f;
      }

      .cls-5 {
        fill: #4d4d47;
      }

      .cls-6 {
        fill: #e15655;
      }

      .cls-7 {
        fill: #3d3d3a;
      }

      .cls-8 {
        fill: #80512a;
      }

      .cls-9 {
        fill: #ab2f2e;
      }

      .cls-10 {
        fill: #e44542;
      }

      .cls-11 {
        fill: #c73f3c;
      }

      .cls-12 {
        fill: #dadada;
      }

      .cls-13 {
        fill: #4b8aac;
      }

      .cls-14 {
        fill: #5191b4;
      }

      .cls-15 {
        fill: #3d778c;
      }
    </style>
  </defs>
  <circle class="cls-10" cx="139.8" cy="139.6" r="42.8"/>
  <g>
    <g>
      <g>
        <circle class="cls-3" cx="143.2" cy="139.1" r="122"/>
        <circle class="cls-2" cx="140.9" cy="139.6" r="83.5"/>
        <path class="cls-12" d="M202.1,210.8l13.3,16.6c21.8-18.8,36.5-45.6,39.6-75.9l-21.2-2c-2.5,24.3-14.2,45.9-31.7,61.3Z"/>
        <path class="cls-15" d="M237.3,144.7l-19.2-1.8c-2.5,24.2-14.1,45.5-31.3,60.9l12.1,15c21.1-18.6,35.2-44.7,38.4-74.1h0Z"/>
        <path class="cls-12" d="M197.9,214.8l15,18.7c24.6-21.2,41.2-51.5,44.7-85.7l-23.9-2.3c-2.8,27.5-16,51.9-35.8,69.3h0Z"/>
        <path class="cls-14" d="M176.1,182.6l15.4,19.1c15.9-14.3,26.7-34.1,29.1-56.6l-24.4-2.4c-1.8,15.7-9.3,29.6-20.1,39.9Z"/>
        <path class="cls-5" d="M139.5,255.7c-64.2,0-116.2-52-116.2-116.2S75.3,23.3,139.5,23.3s116.2,52,116.2,116.2c0,4.1-.1,8.1-.5,12l23.1,2.2c.5-4.7.7-9.4.7-14.2C279,62.5,216.5,0,139.5,0S0,62.4,0,139.4s62.5,139.5,139.5,139.5c34.6,0,66.2-12.6,90.6-33.4l-14.6-18.1c-20.4,17.6-47,28.3-76,28.3Z"/>
        <path class="cls-5" d="M139.5,255.7c-64.2,0-116.2-52-116.2-116.2S75.3,23.3,139.5,23.3s116.2,52,116.2,116.2c0,4.1,0,9.4-.4,13.3l22.3,4.1c.5-4.7,1.3-12.6,1.3-17.4C278.9,62.5,216.4,0,139.4,0S0,62.4,0,139.4s62.5,139.5,139.5,139.5c34.6,0,68.2-14.4,92.6-35.2l-14-18.4c-20.4,17.6-49.6,30.4-78.6,30.4Z"/>
        <path class="cls-3" d="M139.5,23.2c-64.2,0-116.2,52-116.2,116.2s52,116.2,116.2,116.2c29.1,0,55.6-10.7,76-28.3l-13.3-16.6c-16.7,14.7-38.6,23.6-62.7,23.6-52.4,0-95-42.5-95-95s42.5-95,95-95,95,42.5,95,95c0,3.4-.4,6.9-.7,10.2l21.4,1.8c.4-4,.6-8,.6-12-.1-64-52.1-116.1-116.3-116.1h0Z"/>
        <path class="cls-7" d="M278.3,153.7l-23.1-2.4c-3.1,30.2-17.9,57.2-39.7,76.1l14.6,18.1c26.5-22.7,44.4-55.2,48.2-91.8Z"/>
        <path class="cls-9" d="M197.8,144.2l-19.3-1.8c-1.2,10.2-5.9,19.3-12.8,26.2l12.2,15.2c10.8-10.1,18.1-23.9,19.9-39.6h0Z"/>
        <path class="cls-13" d="M139.5,218.5c-43.6,0-79-35.4-79-79s35.4-79,79-79,79,35.4,79,79c0,2.9-.2,5.7-.5,8.5l15.9,1.5c.3-3.3.5-6.6.5-10,0-52.4-42.5-95-95-95s-95,42.5-95,95,42.5,95,95,95c24,0,45.9-8.9,62.7-23.6l-10-12.4c-13.9,12.3-32.4,20-52.6,20Z"/>
        <path class="cls-15" d="M233.9,149.5l-15.9-1.5c-2.1,20-11.7,37.7-25.9,50.4l10,12.4c17.5-15.4,29.2-37,31.8-61.3h0Z"/>
        <path class="cls-14" d="M178.5,181.4l13.7,17c14.2-12.7,23.8-30.4,25.9-50.4l-21.7-2.1c-1.6,14-8.2,26.4-17.9,35.5Z"/>
        <path class="cls-2" d="M139.5,60.4c-43.6,0-79,35.4-79,79s35.4,79,79,79c20.2,0,38.7-7.6,52.7-20.1l-13.7-17c-10.2,9.5-23.9,15.3-39,15.3-31.6,0-57.3-25.6-57.3-57.3s25.6-57.3,57.3-57.3,57.3,25.6,57.3,57.3c0,2.2-.1,4.4-.4,6.5l21.7,2.1c.3-2.8.5-5.6.5-8.5-.1-43.6-35.5-79-79.1-79Z"/>
        <circle class="cls-10" cx="138.4" cy="135.4" r="48.4"/>
        <path class="cls-9" d="M196.4,145.9l-17.3-1.6c-1.1,9.1-5.3,17.3-11.5,23.5l10.9,13.6c9.7-9.1,16.3-21.5,17.9-35.5h0Z"/>
        <path class="cls-1" d="M139.5,179.3c-22,0-39.9-17.8-39.9-39.9s17.8-39.9,39.9-39.9,39.9,17.8,39.9,39.9c0,1.6-.1,3.3-.3,4.8l17.3,1.6c.2-2.1.4-4.3.4-6.5,0-31.6-25.6-57.3-57.3-57.3s-57.3,25.6-57.3,57.3,25.6,57.3,57.3,57.3c15.1,0,28.8-5.8,39-15.3l-10.9-13.6c-7.3,7.2-17.2,11.6-28.1,11.6h0Z"/>
        <path class="cls-11" d="M167.5,167.8c6.2-6.2,10.4-14.3,11.5-23.5l-32.9-3.1,21.4,26.6Z"/>
        <path class="cls-10" d="M139.5,99.6c-22,0-39.9,17.8-39.9,39.9s17.8,39.9,39.9,39.9c10.9,0,20.8-4.4,28.1-11.5l-21.4-26.6,32.9,3.1c.2-1.6.3-3.2.3-4.8-.1-22.2-17.9-40-39.9-40Z"/>
      </g>
      <circle class="cls-4" cx="139.5" cy="139.4" r="20.3"/>
    </g>
    <path class="cls-6" d="M338.2,77.9c-14.5,4-29.2,9.8-43.7,13.8-1.6.4-2.5,1.6-4.2,1.2-1.2-3.4-2.6-9.2-4.1-12.5-1.2-2.7-.7-4.1,2-5.3,13.5-6.2,27-12.4,40.5-18.8,2.5-1.2,3.4-.6,4,2,1.7,6.6,3.7,13.1,5.5,19.6h0Z"/>
    <path class="cls-6" d="M345.5,108.5c.8,2.6.3,3.5-2.5,3.7-14.9,1.1-29.7,2.3-44.5,3.6-2.9.3-4.1-.7-4.4-3.6-.3-3.6-2-9.3-2.6-12.9,1.3-1.2,2.7-.6,4.3-1,14.6-3.7,30.2-5.9,44.8-9.6,1.7,6.6,3.2,13.2,4.9,19.8h0Z"/>
    <path class="cls-8" d="M144.8,141.3c-2.8.5-5-.1-5.8-3.1-.8-3,1-4.1,3.6-4.9,5.2-1.5,181.2-51.4,195.7-55.4,7.2,1.8,8.3,6.9,2.7,11.4,0,0-190.7,51-196.2,52Z"/>
  </g>
</svg>